<svg width="165" height="165" viewBox="0 0 165 165" fill="none" xmlns="http://www.w3.org/2000/svg">
<path d="M118.617 36.6028L103.5 51.7796L88.3229 66.8968L73.2056 82.0736L82.0736 90.8821L97.1909 75.7648L103.5 82.0736L82.0141 103.5L60.5881 82.0736L90.8821 51.7796L82.0141 42.9116L47.3158 77.6694V86.4779L77.6099 116.772H86.4183L116.712 86.4779V77.6694L105.999 66.8968L112.308 60.5881L133.794 82.0736L82.0141 133.853L30.294 82.0736L82.0141 30.294L97.1909 45.4708L105.999 36.6028L86.4779 17.0218H77.6099L17.0218 77.6694V86.4779L77.6099 147.066H86.4183L147.006 86.4779V77.6694L121.176 51.7796L127.485 45.4708L164.088 82.0736L82.0141 164.147L0 82.0736L82.0736 0L118.617 36.6028Z" fill="white"/>
</svg>
