<svg width="193" height="17" viewBox="0 0 193 17" fill="none" xmlns="http://www.w3.org/2000/svg">
<path d="M179.393 8.51782L178.754 7.92374C175.559 4.72229 179.46 -0.12938 185.681 0.00263851C189.212 0.101651 189.481 0.992775 191.196 1.22381C194.02 1.58686 193.18 6.24051 191.061 6.1745C188.607 6.14149 188.371 1.75188 185.008 1.68587C184.437 1.65287 184.067 2.01592 184.033 2.74202C183.865 5.5144 188.674 6.43853 191.162 8.48482C191.398 8.68284 191.633 8.84787 191.801 9.0459C194.996 12.2803 191.129 17.132 184.874 16.967C181.377 16.901 181.074 16.0429 179.359 15.7788C176.669 15.3828 177.409 10.7621 179.494 10.7951C181.982 10.8611 182.184 15.2508 185.546 15.3168C186.118 15.3168 186.488 14.9867 186.555 14.2606C186.69 11.4882 181.915 10.5311 179.393 8.51782Z" fill="#FAFF00"/>
<path d="M160.608 15.0198C160.608 13.2045 161.617 12.3464 161.617 10.1021V6.90064C161.617 4.65633 160.608 3.79821 160.608 1.94995C160.608 0.530758 161.953 0.00268555 164.105 0.00268555C166.257 0.00268555 167.602 0.530758 167.602 1.94995C167.602 3.79821 166.56 4.65633 166.56 6.90064V7.56074L168.275 6.30656C170.023 4.55732 168.981 2.87408 169.956 1.68592C170.797 0.695781 172.142 0.00268555 174.395 0.00268555C176.816 0.00268555 177.69 1.35587 176.144 2.70906C174.63 4.02924 172.176 4.98638 170.225 6.70262C173.319 6.30656 176.144 8.15482 176.144 11.2242C176.144 12.4454 177.152 13.6006 177.152 15.0198C177.152 16.472 175.807 16.967 173.655 16.967C171.503 16.967 170.158 16.472 170.158 15.0198C170.158 13.6006 171.2 12.1484 171.2 11.2242C171.2 7.59374 166.594 7.3297 166.594 10.3661C166.594 12.4124 167.602 13.2705 167.602 15.0198C167.602 16.472 166.257 16.967 164.105 16.967C161.953 16.967 160.608 16.472 160.608 15.0198Z" fill="#FAFF00"/>
<path d="M150.367 16.967C145.02 16.967 140.683 13.1715 140.683 8.48486C140.683 3.79821 145.02 0.00268555 150.367 0.00268555C155.68 0.00268555 160.018 3.79821 160.018 8.48486C160.018 13.1715 155.68 16.967 150.367 16.967ZM150.367 1.68592C148.484 1.68592 146.971 4.72234 146.971 8.48486C146.971 12.2804 148.484 15.3168 150.367 15.3168C152.217 15.3168 153.73 12.2804 153.73 8.48486C153.73 4.72234 152.217 1.68592 150.367 1.68592Z" fill="#FAFF00"/>
<path d="M130.442 16.967C125.095 16.967 120.757 13.1715 120.757 8.48486C120.757 3.79821 125.095 0.00268555 130.442 0.00268555C135.755 0.00268555 140.093 3.79821 140.093 8.48486C140.093 13.1715 135.755 16.967 130.442 16.967ZM130.442 1.68592C128.559 1.68592 127.046 4.72234 127.046 8.48486C127.046 12.2804 128.559 15.3168 130.442 15.3168C132.291 15.3168 133.805 12.2804 133.805 8.48486C133.805 4.72234 132.291 1.68592 130.442 1.68592Z" fill="#FAFF00"/>
<path d="M104.313 15.0198C104.313 13.2045 105.322 12.3464 105.322 10.1021V6.90064C105.322 4.65633 104.313 3.79821 104.313 1.98296C104.313 0.530758 105.624 0.0356897 107.743 0.00268555H114.199C116.99 0.00268555 119.277 2.11498 119.277 4.65633C119.277 6.00952 118.672 7.23069 117.663 8.08881C119.445 8.81491 120.689 10.4321 120.689 12.3134C120.689 14.8878 118.403 17 115.612 17H107.339L107.373 16.967C105.49 16.901 104.313 16.373 104.313 15.0198ZM110.265 9.34298V13.6006C110.265 14.7887 111.207 15.3168 112.35 15.3168C114.233 15.3168 115.746 13.9636 115.746 12.3134C115.746 10.6632 114.233 9.34298 112.35 9.34298H110.265ZM110.265 2.84108V7.65975H110.399C112.249 7.65975 114.334 6.30656 114.334 4.65633C114.334 3.23713 112.619 1.68592 111.408 1.68592C110.87 1.68592 110.265 2.04897 110.265 2.84108Z" fill="#FAFF00"/>
<path d="M91.4836 16.967C86.1705 16.967 81.8999 13.1715 81.8999 8.48486C81.8999 3.79821 86.1705 0.00268555 91.4836 0.00268555C94.2074 0.00268555 95.956 1.12484 97.3347 1.5209C100.731 2.41202 99.554 7.89078 96.5949 7.89078C94.1401 7.89078 94.9135 4.85436 93.6021 3.23713C92.1897 1.45489 89.6341 1.19085 88.1881 2.31301C84.4219 5.1514 92.3915 17.5941 98.0072 12.3464C98.9151 11.4553 100.126 12.3794 99.285 13.4025C97.5028 15.5478 94.7118 16.967 91.4836 16.967Z" fill="#FAFF00"/>
<path d="M74.4205 15.0198C74.4205 13.2045 75.4293 12.3464 75.4293 10.1021V6.90064C75.4293 4.65633 74.4205 3.79821 74.4205 1.98296C74.4205 0.530758 75.7656 0.00268555 77.9177 0.00268555C80.0699 0.00268555 81.4149 0.530758 81.4149 1.98296C81.4149 3.79821 80.3725 4.65633 80.3725 6.90064V10.1021C80.3725 12.3464 81.4149 13.2045 81.4149 15.0198C81.4149 16.472 80.0699 16.967 77.9177 16.967C75.7656 16.967 74.4205 16.472 74.4205 15.0198Z" fill="#FAFF00"/>
<path d="M58.6658 15.0198C58.6658 13.2045 59.6746 12.3464 59.6746 10.1021V6.90064C59.6746 4.65633 58.6658 3.79821 58.6658 1.94995C58.6658 0.530758 60.0108 0.00268555 62.163 0.00268555H68.384C71.4776 0.00268555 74.0333 2.31301 74.0333 5.1184C74.0333 7.92379 71.4776 10.2341 68.384 10.2341H64.6177C64.685 12.3794 65.6602 13.2375 65.6602 15.0198C65.6602 16.472 64.3151 16.967 62.163 16.967C60.0108 16.967 58.6658 16.472 58.6658 15.0198ZM64.6177 2.54404V7.69275C64.6177 8.41885 65.4584 8.7489 66.3663 8.48486C67.9468 8.0228 69.0565 6.63661 69.0565 5.1184C69.0565 3.53418 67.9804 2.21399 66.3663 1.75193C65.4584 1.48789 64.6177 1.81794 64.6177 2.54404Z" fill="#FAFF00"/>
<path d="M48.5893 16.967C43.2427 16.967 38.9048 13.1715 38.9048 8.48486C38.9048 3.79821 43.2427 0.00268555 48.5893 0.00268555C53.9024 0.00268555 58.2403 3.79821 58.2403 8.48486C58.2403 13.1715 53.9024 16.967 48.5893 16.967ZM48.5893 1.68592C46.7062 1.68592 45.193 4.72234 45.193 8.48486C45.193 12.2804 46.7062 15.3168 48.5893 15.3168C50.4388 15.3168 51.952 12.2804 51.952 8.48486C51.952 4.72234 50.4388 1.68592 48.5893 1.68592Z" fill="#FAFF00"/>
<path d="M27.362 7.3297C26.0842 5.01938 24.2683 4.22727 23.0578 2.37901C22.1498 0.959818 23.5622 0.00268555 25.8824 0.00268555C28.2027 0.00268555 29.6823 0.530758 30.5902 1.94995C31.33 3.10512 31.0274 3.79821 31.8008 5.1514L33.6503 8.38585C34.1547 7.56074 34.6254 6.73562 34.6254 6.73562C35.8696 4.62333 33.852 2.9731 34.3228 1.68592C34.6927 0.695781 35.9705 0.00268555 38.2235 0.00268555C40.6447 0.00268555 41.6535 0.959818 40.88 2.41202C40.073 3.89723 37.5174 5.1184 36.4413 6.96665L34.2892 10.6632C34.4573 12.5114 35.298 13.3365 35.298 15.0198C35.298 16.472 33.9529 16.967 31.8008 16.967C29.6486 16.967 28.3036 16.472 28.3036 15.0198C28.3036 13.3695 29.1442 12.5114 29.3124 10.6632L27.362 7.3297Z" fill="#FAFF00"/>
<path d="M2.59581 16.967C0.981717 16.967 -0.0943444 16.5049 0.00653638 15.2837C0.141044 13.6335 2.12503 12.3463 2.29317 10.102L2.56218 6.3065C2.73032 4.06219 1.75514 3.36909 1.88964 1.71886C1.99052 0.596707 2.52856 0.101637 3.63824 0.0356287V0.00262451H5.72311C7.77436 0.00262451 8.41327 0.992761 9.11943 2.676C9.79197 4.29322 11.8096 9.77198 11.8096 9.77198L14.6342 2.41196C15.1387 1.22379 16.0802 0.00262451 18.2323 0.00262451C20.3508 0.00262451 21.5278 0.530697 21.6623 1.9829C21.7968 3.79815 20.8216 4.65627 21.0234 6.90058L21.2588 10.102C21.4269 12.3463 22.5029 13.2045 22.6711 15.0197C22.772 16.4719 21.4605 16.967 19.3084 16.967C17.1563 16.967 15.7103 16.4719 15.5758 15.0197C15.4413 13.2045 16.4165 12.3463 16.2483 10.102L15.7776 4.06219L11.3388 15.2177C10.6663 16.967 9.4557 16.967 8.78316 15.2177L4.47892 4.39223L4.04177 10.102C3.87363 12.3463 5.65586 13.6335 5.52135 15.2837C5.42047 16.5049 4.14265 16.967 2.59581 16.967Z" fill="#FAFF00"/>
</svg>
