<?xml version="1.0" encoding="UTF-8" standalone="no"?>
<!DOCTYPE svg PUBLIC "-//W3C//DTD SVG 1.1//EN" "http://www.w3.org/Graphics/SVG/1.1/DTD/svg11.dtd">
<svg xmlns="http://www.w3.org/2000/svg" version="1.1" viewBox="0.00 0.00 1024.00 576.00">
<g stroke-width="2.00" fill="none" stroke-linecap="butt">
<path stroke="#738d69" vector-effect="non-scaling-stroke" d="
  M 212.00 0.00
  L 212.82 0.50"
/>
<path stroke="#556c5c" vector-effect="non-scaling-stroke" d="
  M 212.82 0.50
  Q 195.47 3.89 169.75 7.25
  Q 166.41 7.68 164.25 7.88
  Q 161.51 8.12 158.76 8.52
  C 155.18 9.04 151.72 8.83 148.21 9.43
  C 143.90 10.17 139.65 9.64 135.36 10.19
  C 131.61 10.68 127.81 10.98 124.03 10.99
  Q 103.15 11.03 81.53 10.99
  C 76.46 10.98 71.50 10.17 66.43 10.03
  Q 61.23 9.88 55.10 9.25
  Q 47.56 8.48 40.00 7.81
  Q 25.22 6.48 0.00 1.91"
/>
<path stroke="#1f220d" vector-effect="non-scaling-stroke" d="
  M 215.57 0.00
  Q 214.24 0.80 212.82 0.50"
/>
<path stroke="#6d7010" vector-effect="non-scaling-stroke" d="
  M 224.22 0.00
  Q 193.92 6.28 163.15 9.81
  C 160.62 10.10 158.12 10.00 155.60 10.49
  C 151.49 11.29 147.37 10.85 143.20 11.48
  Q 139.95 11.98 136.56 12.03
  C 127.58 12.16 118.66 12.98 109.80 13.00
  C 100.38 13.03 90.83 13.22 81.53 12.51
  Q 74.98 12.00 68.47 11.98
  C 64.67 11.97 60.82 11.19 56.93 11.04
  C 52.05 10.86 47.46 10.20 42.25 9.79
  Q 28.26 8.68 0.00 3.70"
/>
<path stroke="#6d7010" vector-effect="non-scaling-stroke" d="
  M 437.30 0.00
  Q 437.25 0.12 437.23 0.27
  A 0.43 0.41 80.2 0 1 437.02 0.58
  Q 283.98 92.05 105.50 93.75
  Q 95.38 93.84 85.51 93.52
  Q 47.33 92.25 9.51 86.91
  Q 4.72 86.24 0.00 85.45"
/>
<path stroke="#1f5725" vector-effect="non-scaling-stroke" d="
  M 441.22 0.00
  Q 304.43 83.11 144.73 94.03
  Q 135.17 94.68 124.76 94.95
  Q 96.25 95.69 71.00 94.55
  Q 36.93 93.01 0.00 87.20"
/>
<path stroke="#1f5725" vector-effect="non-scaling-stroke" d="
  M 499.85 0.00
  Q 498.15 1.88 494.28 4.57
  Q 351.40 103.89 180.12 123.99
  Q 131.63 129.67 75.02 127.82
  C 72.55 127.74 70.14 127.29 67.75 127.26
  Q 59.31 127.12 53.98 126.71
  Q 26.90 124.59 0.00 120.59"
/>
<path stroke="#7b4c0e" vector-effect="non-scaling-stroke" d="
  M 503.81 0.00
  Q 497.09 4.64 490.31 9.29
  Q 352.34 103.80 187.18 124.80
  Q 177.58 126.03 167.30 126.97
  Q 141.61 129.34 117.00 129.87
  Q 59.06 131.11 0.00 122.26"
/>
<path stroke="#7b4c0e" vector-effect="non-scaling-stroke" d="
  M 634.09 0.00
  Q 512.16 117.78 355.01 174.24
  Q 192.35 232.68 17.51 215.80
  Q 12.14 215.28 0.00 213.83"
/>
<path stroke="#77292d" vector-effect="non-scaling-stroke" d="
  M 636.53 0.00
  Q 562.17 72.39 472.32 122.60
  Q 343.62 194.53 196.47 214.27
  Q 114.25 225.30 32.25 218.76
  Q 18.51 217.67 0.00 215.61"
/>
<path stroke="#77292d" vector-effect="non-scaling-stroke" d="
  M 680.11 0.00
  L 680.39 0.21
  A 0.30 0.30 0.0 0 1 680.43 0.66
  Q 584.93 100.72 463.50 163.31
  Q 320.05 237.26 157.80 250.53
  C 153.97 250.84 150.11 250.88 146.29 251.30
  C 139.34 252.06 132.47 251.89 125.71 252.36
  Q 119.71 252.77 113.77 252.86
  Q 92.16 253.17 69.85 252.77
  C 65.78 252.69 61.61 252.02 57.51 252.02
  C 50.12 252.02 42.81 251.31 35.76 250.84
  Q 17.84 249.66 0.00 247.50"
/>
<path stroke="#1f5725" vector-effect="non-scaling-stroke" d="
  M 683.38 0.00
  L 653.85 29.71
  A 0.52 0.51 -46.1 0 0 653.86 30.45
  L 742.74 112.28
  Q 743.60 113.07 744.75 113.26
  L 761.22 116.02
  Q 762.13 116.17 761.59 115.42
  L 701.76 32.25
  Q 701.39 31.74 702.02 31.74
  L 735.28 31.75
  Q 736.07 31.75 735.60 31.11
  L 713.01 0.00"
/>
<path stroke="#1f220d" vector-effect="non-scaling-stroke" d="
  M 715.28 0.00
  L 737.81 31.13
  A 1.57 1.56 71.7 0 0 739.07 31.77
  L 1024.00 32.02"
/>
<path stroke="#1f5725" vector-effect="non-scaling-stroke" d="
  M 1024.00 34.14
  L 749.28 34.11
  Q 748.42 34.11 748.92 34.81
  L 762.44 53.53
  A 1.17 1.16 71.8 0 0 763.38 54.01
  L 1024.00 54.01"
/>
<path stroke="#1f220d" vector-effect="non-scaling-stroke" d="
  M 1024.00 56.30
  L 765.13 56.28
  A 0.38 0.37 71.8 0 0 764.83 56.88
  L 791.09 93.11
  Q 791.38 93.51 791.87 93.51
  L 1024.00 93.51"
/>
<path stroke="#1f5725" vector-effect="non-scaling-stroke" d="
  M 1024.00 95.69
  L 793.58 95.67
  A 0.32 0.31 72.2 0 0 793.33 96.17
  L 807.06 115.16
  A 1.11 1.10 -18.1 0 0 807.95 115.61
  L 853.75 115.61
  Q 854.37 115.61 854.48 115.00
  Q 854.67 113.99 854.85 112.98
  Q 855.59 108.87 857.71 112.17
  Q 858.27 113.05 857.93 114.65
  A 0.80 0.79 -84.1 0 0 858.70 115.61
  L 1024.00 115.60"
/>
<path stroke="#1f220d" vector-effect="non-scaling-stroke" d="
  M 1024.00 117.77
  L 859.80 117.76
  A 0.99 0.99 0.0 0 0 858.90 119.16
  Q 859.47 120.42 859.78 121.86
  Q 863.04 136.64 866.04 149.56
  A 0.91 0.91 0.0 0 0 866.93 150.27
  L 1024.00 150.27"
/>
<path stroke="#1f5725" vector-effect="non-scaling-stroke" d="
  M 1024.00 152.38
  L 867.07 152.38
  Q 866.63 152.38 866.72 152.81
  L 870.95 171.75
  A 0.70 0.68 83.7 0 0 871.62 172.30
  L 1024.00 172.29"
/>
<path stroke="#1f220d" vector-effect="non-scaling-stroke" d="
  M 1024.00 174.56
  L 872.28 174.53
  A 0.57 0.57 0.0 0 0 871.73 175.23
  L 879.35 209.13
  A 0.45 0.45 0.0 0 0 879.79 209.48
  Q 900.29 209.49 920.81 209.45
  Q 922.32 209.45 923.10 208.13
  Q 923.56 207.34 923.90 208.19
  Q 924.01 208.45 923.96 208.71
  Q 923.82 209.46 924.58 209.46
  L 1024.00 209.48"
/>
<path stroke="#1f5725" vector-effect="non-scaling-stroke" d="
  M 1024.00 211.85
  L 924.59 211.82
  Q 923.97 211.82 923.91 212.44
  L 922.01 231.24
  Q 921.95 231.79 922.51 231.79
  L 1024.00 231.80"
/>
<path stroke="#1f220d" vector-effect="non-scaling-stroke" d="
  M 1024.00 233.98
  L 922.99 233.99
  Q 921.77 233.99 921.64 235.21
  L 918.69 264.33
  A 2.46 2.44 -63.9 0 0 919.34 266.25
  L 928.02 275.51
  Q 928.41 275.92 928.86 275.57
  L 938.19 268.20
  Q 940.45 266.41 940.07 269.27
  Q 939.65 272.52 938.36 276.97
  Q 938.20 277.51 938.76 277.51
  L 949.24 277.50
  A 2.62 2.59 23.1 0 0 951.03 276.79
  L 963.75 264.65
  A 0.80 0.79 62.9 0 1 965.08 265.08
  L 967.31 276.86
  A 0.78 0.77 84.6 0 0 968.07 277.49
  L 1024.00 277.51"
/>
<path stroke="#1f5725" vector-effect="non-scaling-stroke" d="
  M 1024.00 279.57
  L 968.56 279.54
  Q 967.80 279.54 967.94 280.29
  L 971.39 298.37
  Q 971.51 298.97 972.12 298.97
  L 1024.00 298.98"
/>
<path stroke="#1f220d" vector-effect="non-scaling-stroke" d="
  M 1024.00 301.11
  L 972.74 301.07
  A 0.74 0.74 0.0 0 0 972.02 301.96
  Q 974.06 312.03 976.17 324.17
  C 976.75 327.50 980.75 330.98 983.03 333.08
  Q 983.62 333.63 984.42 333.63
  L 1024.00 333.59"
/>
<path stroke="#1f5725" vector-effect="non-scaling-stroke" d="
  M 1024.00 335.66
  L 986.42 335.65
  Q 985.32 335.65 986.13 336.39
  L 1006.21 354.91
  A 1.30 1.25 65.5 0 0 1007.07 355.25
  L 1024.00 355.28"
/>
<path stroke="#1f220d" vector-effect="non-scaling-stroke" d="
  M 1024.00 357.30
  L 1010.47 357.38
  Q 1008.55 357.40 1010.01 358.65
  Q 1017.00 364.66 1022.12 369.54
  A 2.03 1.99 -69.3 0 1 1022.74 370.95
  C 1022.77 372.52 1022.65 374.11 1022.90 375.68
  Q 1023.72 380.82 1022.73 387.51
  Q 1022.41 389.63 1024.00 392.02"
/>
<path stroke="#1f5725" vector-effect="non-scaling-stroke" d="
  M 716.00 108.59
  Q 716.00 108.32 716.26 108.37
  L 739.10 112.30
  Q 740.31 112.51 739.41 111.68
  L 652.57 31.72
  A 0.66 0.65 -45.3 0 0 651.67 31.73
  Q 631.01 51.41 608.13 70.21
  A 0.71 0.71 0.0 0 0 608.15 71.33
  L 788.12 208.07
  A 0.60 0.59 -37.0 0 0 788.71 208.15
  L 788.99 208.05
  Q 789.38 207.90 789.66 208.21
  Q 792.67 211.57 793.81 212.43
  Q 810.13 224.77 826.42 237.19
  A 0.42 0.42 0.0 0 0 827.08 236.95
  L 832.05 214.83
  A 1.52 1.51 -62.7 0 0 831.59 213.38
  Q 776.36 163.41 716.17 108.95
  Q 716.01 108.81 716.00 108.59"
/>
<path stroke="#6d7010" vector-effect="non-scaling-stroke" d="
  M 765.14 118.39
  L 721.75 111.02
  Q 720.80 110.86 721.51 111.50
  L 832.10 211.55
  Q 832.66 212.06 832.83 211.31
  L 838.53 185.74
  Q 838.66 185.16 838.25 184.74
  L 795.46 139.79
  Q 794.97 139.28 795.67 139.39
  C 799.37 140.01 803.00 139.80 806.74 140.45
  C 810.27 141.07 813.78 140.75 817.32 141.48
  Q 820.44 142.13 823.65 141.98
  Q 824.37 141.94 823.94 141.36
  L 745.93 33.60
  A 1.44 1.41 71.7 0 0 744.78 33.01
  L 705.21 33.01
  Q 704.42 33.01 704.88 33.65
  L 765.46 117.86
  Q 765.94 118.53 765.14 118.39"
/>
<path stroke="#77292d" vector-effect="non-scaling-stroke" d="
  M 557.71 109.13
  L 793.49 264.51
  A 0.28 0.27 -76.2 0 0 793.91 264.25
  L 788.71 211.60
  A 2.00 1.98 16.3 0 0 787.94 210.21
  L 606.45 72.31
  Q 605.97 71.95 605.51 72.33
  Q 582.63 91.00 557.70 108.45
  Q 557.21 108.80 557.71 109.13"
/>
<path stroke="#0e415f" vector-effect="non-scaling-stroke" d="
  M 772.68 267.61
  Q 774.31 268.09 775.65 269.14
  Q 784.77 276.28 794.14 284.08
  Q 794.55 284.42 795.07 284.51
  Q 795.99 284.66 796.02 283.15
  A 1.80 1.57 -55.1 0 0 795.98 282.78
  Q 795.01 278.27 794.87 273.83
  Q 794.78 270.86 794.07 267.57
  Q 793.94 266.98 793.43 266.64
  L 556.18 110.31
  Q 555.62 109.94 555.06 110.32
  Q 539.89 120.81 524.39 130.56
  A 0.29 0.29 0.0 0 0 524.40 131.06
  L 774.03 279.01
  Q 775.31 279.77 774.84 278.36
  Q 773.24 273.49 772.34 267.91
  A 0.27 0.26 -86.0 0 1 772.68 267.61"
/>
<path stroke="#77292d" vector-effect="non-scaling-stroke" d="
  M 856.31 241.32
  Q 857.17 241.46 857.52 242.23
  Q 874.40 279.72 892.43 320.20
  Q 892.59 320.54 892.88 320.79
  Q 893.52 321.34 893.37 320.50
  L 856.62 117.76
  Q 856.33 116.18 856.05 117.76
  L 819.64 318.68
  Q 818.80 323.29 820.72 319.01
  L 855.33 241.85
  A 0.92 0.92 0.0 0 1 856.31 241.32"
/>
<path stroke="#1f220d" vector-effect="non-scaling-stroke" d="
  M 827.36 143.95
  C 823.30 144.18 819.57 143.09 815.53 142.94
  C 810.97 142.78 806.33 141.57 801.54 141.78
  Q 800.64 141.82 801.26 142.47
  L 808.38 149.82
  A 1.46 1.45 67.6 0 0 809.42 150.26
  L 845.76 150.26
  A 0.98 0.98 0.0 0 0 846.72 149.49
  L 853.70 118.41
  Q 853.84 117.76 853.18 117.76
  L 809.51 117.79
  A 0.28 0.28 0.0 0 0 809.28 118.24
  L 827.57 143.50
  Q 827.88 143.92 827.36 143.95"
/>
<path stroke="#1f5725" vector-effect="non-scaling-stroke" d="
  M 845.95 152.82
  A 0.35 0.35 0.0 0 0 845.60 152.39
  L 811.68 152.42
  A 0.35 0.35 0.0 0 0 811.42 153.01
  L 829.67 172.17
  A 0.35 0.35 0.0 0 0 829.92 172.28
  L 841.34 172.29
  A 0.35 0.35 0.0 0 0 841.68 172.02
  L 845.95 152.82"
/>
<path stroke="#6d7010" vector-effect="non-scaling-stroke" d="
  M 840.61 184.92
  Q 832.84 219.28 824.95 254.55
  C 824.55 256.34 824.97 258.75 826.12 260.04
  Q 828.07 262.24 828.60 259.35
  Q 836.66 214.67 844.33 172.40
  Q 844.38 172.13 844.17 171.96
  A 0.46 0.46 0.0 0 0 843.42 172.22
  Q 842.08 178.43 840.61 184.92"
/>
<path stroke="#6e3b56" vector-effect="non-scaling-stroke" d="
  M 870.73 179.16
  Q 869.87 175.25 868.93 172.28
  Q 868.86 172.07 868.65 172.12
  L 868.64 172.13
  Q 868.43 172.18 868.46 172.40
  Q 876.39 216.08 884.39 260.14
  Q 884.65 261.58 885.75 260.62
  Q 886.64 259.86 887.16 258.74
  Q 888.13 256.72 887.62 254.54
  Q 879.67 220.02 870.73 179.16"
/>
<path stroke="#1f220d" vector-effect="non-scaling-stroke" d="
  M 833.03 174.67
  A 0.34 0.34 0.0 0 0 832.79 175.24
  L 838.89 181.91
  A 0.34 0.34 0.0 0 0 839.47 181.76
  L 840.93 175.03
  A 0.34 0.34 0.0 0 0 840.59 174.61
  L 833.03 174.67"
/>
<path stroke="#1f5725" vector-effect="non-scaling-stroke" d="
  M 906.81 230.74
  L 919.45 212.35
  Q 919.83 211.81 919.16 211.81
  L 880.44 211.82
  Q 879.94 211.82 880.05 212.30
  L 883.70 228.41
  A 4.31 4.30 83.6 0 0 887.90 231.77
  L 904.79 231.79
  Q 906.08 231.80 906.81 230.74"
/>
<path stroke="#77292d" vector-effect="non-scaling-stroke" d="
  M 823.39 253.50
  L 826.40 240.07
  A 0.87 0.86 -64.8 0 0 826.08 239.18
  Q 811.77 228.31 798.28 218.10
  Q 797.95 217.85 797.70 217.52
  Q 797.37 217.08 797.12 217.00
  Q 796.29 216.75 796.78 217.46
  Q 809.12 235.53 821.73 253.82
  A 0.92 0.92 0.0 0 0 823.39 253.50"
/>
<path stroke="#6d7010" vector-effect="non-scaling-stroke" d="
  M 892.23 291.19
  C 901.33 266.87 910.01 242.37 919.00 218.00
  Q 919.12 217.68 919.02 217.34
  A 0.44 0.44 0.0 0 0 918.24 217.22
  Q 902.95 239.55 887.33 262.19
  C 885.87 264.32 885.46 266.07 885.85 268.46
  Q 887.77 280.23 889.89 291.00
  Q 890.72 295.22 892.23 291.19"
/>
<path stroke="#6d7010" vector-effect="non-scaling-stroke" d="
  M 794.00 218.75
  C 802.77 242.97 811.81 267.81 820.81 292.16
  A 1.28 1.27 -3.8 0 0 821.73 292.96
  Q 822.43 293.11 822.57 292.39
  Q 824.84 280.22 826.96 268.13
  C 827.28 266.36 826.81 264.33 825.78 262.83
  Q 810.48 240.64 794.69 217.65
  Q 793.79 216.33 793.74 217.93
  Q 793.74 218.02 794.00 218.75"
/>
<path stroke="#7b4c0e" vector-effect="non-scaling-stroke" d="
  M 799.38 238.66
  Q 795.83 228.80 792.13 219.24
  Q 791.09 216.55 791.39 219.42
  Q 793.65 241.29 795.63 262.79
  Q 796.11 268.03 796.74 272.42
  C 797.13 275.13 796.99 277.88 797.48 280.60
  C 798.14 284.33 797.90 287.96 798.58 291.63
  C 799.19 294.94 799.01 298.25 799.54 301.51
  C 800.29 306.14 799.73 313.57 803.38 317.12
  Q 808.62 322.20 813.82 327.12
  A 1.35 1.35 0.0 0 0 816.00 326.64
  Q 816.85 324.50 817.02 322.23
  C 817.16 320.42 817.80 318.96 818.00 317.17
  Q 818.21 315.29 818.59 313.37
  Q 819.76 307.52 820.77 301.60
  C 821.19 299.13 820.83 297.48 820.02 295.27
  Q 809.54 266.82 799.38 238.66"
/>
<path stroke="#7b4c0e" vector-effect="non-scaling-stroke" d="
  M 920.53 219.09
  C 911.17 243.74 902.42 268.67 893.08 294.00
  C 891.51 298.27 891.74 301.30 892.55 305.57
  Q 894.61 316.49 896.37 326.31
  A 1.41 1.41 0.0 0 0 898.69 327.12
  Q 904.00 322.44 909.10 317.34
  C 911.75 314.70 912.13 311.10 912.50 307.50
  Q 916.94 263.44 921.25 219.26
  Q 921.53 216.47 920.53 219.09"
/>
<path stroke="#1f220d" vector-effect="non-scaling-stroke" d="
  M 904.17 234.53
  A 0.34 0.34 0.0 0 0 903.89 234.00
  L 889.38 233.97
  A 0.34 0.34 0.0 0 0 889.14 234.55
  L 897.56 243.43
  A 0.34 0.34 0.0 0 0 898.09 243.39
  L 904.17 234.53"
/>
<path stroke="#6d7010" vector-effect="non-scaling-stroke" d="
  M 889.62 254.62
  A 0.31 0.31 0.0 0 0 890.17 254.73
  L 896.31 246.08
  A 0.31 0.31 0.0 0 0 896.28 245.69
  L 885.60 234.43
  A 0.31 0.31 0.0 0 0 885.07 234.71
  L 889.62 254.62"
/>
<path stroke="#556c5c" vector-effect="non-scaling-stroke" d="
  M 858.43 249.03
  A 0.32 0.32 0.0 0 0 857.82 249.17
  L 857.82 313.86
  A 0.32 0.32 0.0 0 0 857.88 314.04
  L 889.01 359.73
  A 0.32 0.32 0.0 0 0 889.59 359.61
  L 895.22 331.21
  A 0.32 0.32 0.0 0 0 895.20 331.02
  L 858.43 249.03"
/>
<path stroke="#2a5b72" vector-effect="non-scaling-stroke" d="
  M 853.72 250.20
  Q 836.30 289.03 818.43 328.91
  C 817.76 330.42 817.68 332.27 818.00 333.89
  Q 820.34 345.84 822.96 358.72
  Q 823.04 359.14 823.34 359.44
  A 0.38 0.37 39.5 0 0 823.91 359.39
  L 854.24 314.81
  A 4.35 4.32 -28.0 0 0 855.00 312.36
  L 855.00 250.48
  Q 855.00 247.34 853.72 250.20"
/>
<path stroke="#6d7010" vector-effect="non-scaling-stroke" d="
  M 926.19 277.77
  Q 926.34 277.72 926.49 277.65
  Q 926.81 277.48 926.55 277.22
  L 918.72 269.29
  Q 918.27 268.83 918.21 269.47
  L 916.78 283.77
  Q 916.72 284.37 917.33 284.40
  Q 918.05 284.44 918.63 283.99
  Q 922.32 281.10 925.84 277.96
  Q 925.99 277.83 926.19 277.77"
/>
<path stroke="#77292d" vector-effect="non-scaling-stroke" d="
  M 742.78 330.46
  Q 743.22 331.29 743.72 331.81
  A 0.77 0.77 0.0 0 0 745.02 331.47
  L 755.86 289.95
  Q 756.28 288.34 755.77 286.75
  Q 753.35 279.35 749.86 271.54
  Q 749.72 271.23 749.63 270.90
  Q 749.51 270.49 749.08 270.50
  A 0.76 0.76 0.0 0 0 748.34 271.13
  Q 743.93 294.95 739.12 320.31
  C 738.44 323.93 741.09 327.26 742.78 330.46"
/>
<path stroke="#77292d" vector-effect="non-scaling-stroke" d="
  M 962.93 271.20
  C 960.94 275.81 959.02 280.57 957.36 285.14
  Q 956.29 288.07 956.98 290.68
  Q 962.50 311.59 967.59 331.34
  Q 967.85 332.36 968.79 331.88
  Q 969.05 331.75 969.49 330.98
  C 971.27 327.84 974.19 324.01 973.50 320.32
  Q 968.82 295.44 964.24 270.89
  A 0.45 0.45 0.0 0 0 963.66 270.54
  Q 963.14 270.71 962.93 271.20"
/>
<path stroke="#7b4c0e" vector-effect="non-scaling-stroke" d="
  M 752.23 271.92
  C 753.69 276.16 755.75 280.83 757.44 284.93
  Q 758.34 287.10 760.56 288.94
  Q 783.08 307.57 805.48 326.08
  A 4.29 4.23 14.6 0 1 806.96 328.56
  L 815.13 371.15
  Q 815.57 373.45 817.91 373.46
  L 821.50 373.47
  Q 823.78 373.49 823.36 371.24
  Q 819.61 351.49 815.92 333.68
  Q 815.43 331.32 813.73 329.69
  Q 784.33 301.42 753.09 271.37
  Q 751.52 269.86 752.23 271.92"
/>
<path stroke="#6d7010" vector-effect="non-scaling-stroke" d="
  M 960.19 273.34
  Q 960.65 272.21 960.67 272.13
  Q 961.39 269.42 959.37 271.36
  Q 930.17 299.42 898.81 329.63
  Q 897.10 331.27 896.65 333.47
  Q 894.55 343.63 889.14 371.19
  Q 888.68 373.50 891.03 373.50
  L 895.00 373.50
  A 2.75 2.75 0.0 0 0 897.69 371.26
  Q 901.34 351.84 905.92 328.15
  Q 906.10 327.19 906.83 326.59
  Q 928.55 308.66 952.28 289.04
  Q 954.44 287.25 954.85 286.28
  Q 957.57 279.73 960.19 273.34"
/>
<path stroke="#1f4d23" vector-effect="non-scaling-stroke" d="
  M 778.56 275.68
  L 797.29 306.98
  Q 797.93 308.05 798.02 306.81
  C 798.23 303.83 797.40 300.88 797.18 297.90
  C 796.99 295.17 797.30 289.33 794.83 287.26
  Q 786.95 280.65 779.59 274.78
  Q 776.59 272.38 778.56 275.68"
/>
<path stroke="#1f4d23" vector-effect="non-scaling-stroke" d="
  M 915.41 307.05
  C 921.84 296.05 928.53 285.32 934.72 274.51
  Q 935.24 273.60 934.28 274.02
  Q 933.53 274.35 932.90 274.86
  Q 925.58 280.76 918.27 286.87
  Q 916.36 288.46 916.13 290.65
  Q 915.29 298.65 914.46 307.14
  Q 914.39 307.87 915.00 307.47
  Q 915.26 307.31 915.41 307.05"
/>
<path stroke="#2a5b72" vector-effect="non-scaling-stroke" d="
  M 777.05 278.94
  Q 778.86 286.28 781.11 293.65
  C 781.54 295.05 782.39 296.86 783.28 297.72
  Q 789.53 303.81 795.64 309.46
  A 0.19 0.19 0.0 0 0 795.95 309.38
  Q 796.11 308.95 795.88 308.56
  Q 786.40 292.58 776.58 276.15
  Q 776.50 276.03 776.35 276.02
  Q 776.18 276.01 776.14 276.29
  Q 776.13 276.41 776.17 276.52
  C 776.47 277.37 776.83 278.05 777.05 278.94"
/>
<path stroke="#556c5c" vector-effect="non-scaling-stroke" d="
  M 921.56 300.38
  Q 919.13 304.37 916.78 308.51
  Q 916.51 308.98 916.69 309.38
  A 0.35 0.34 -34.3 0 0 917.25 309.48
  Q 923.42 303.36 928.85 298.21
  Q 930.82 296.34 931.63 293.45
  Q 933.93 285.25 936.23 277.05
  Q 936.80 275.01 935.72 276.84
  Q 929.53 287.26 921.56 300.38"
/>
<path stroke="#1f5725" vector-effect="non-scaling-stroke" d="
  M 947.64 280.05
  A 0.33 0.33 0.0 0 0 947.40 279.49
  L 937.74 279.55
  A 0.33 0.33 0.0 0 0 937.43 279.80
  L 936.37 283.90
  A 0.33 0.33 0.0 0 0 936.45 284.21
  L 939.57 287.49
  A 0.33 0.33 0.0 0 0 940.04 287.50
  L 947.64 280.05"
/>
<path stroke="#6d7010" vector-effect="non-scaling-stroke" d="
  M 937.63 289.76
  A 0.45 0.45 0.0 0 0 937.65 289.14
  L 936.07 287.30
  A 0.45 0.45 0.0 0 0 935.29 287.47
  L 934.06 292.08
  A 0.45 0.45 0.0 0 0 934.81 292.52
  L 937.63 289.76"
/>
<path stroke="#2a5b72" vector-effect="non-scaling-stroke" d="
  M 761.24 390.36
  Q 757.86 398.48 754.32 406.67
  C 753.17 409.31 756.65 411.98 758.30 413.68
  A 1.63 1.62 41.8 0 0 760.74 413.55
  L 789.33 377.02
  A 5.42 5.39 -37.1 0 0 790.09 371.68
  L 758.53 292.98
  A 0.58 0.57 -38.4 0 0 757.53 292.87
  Q 756.91 293.75 756.64 294.78
  Q 751.56 314.11 746.86 332.15
  Q 745.71 336.53 748.47 340.50
  Q 749.16 341.50 748.84 342.69
  C 745.12 356.29 745.40 372.87 755.03 384.16
  C 756.72 386.15 758.89 387.62 760.94 389.21
  Q 761.53 389.67 761.24 390.36"
/>
<path stroke="#6e3b56" vector-effect="non-scaling-stroke" d="
  M 792.09 371.48
  Q 792.88 373.45 795.00 373.45
  L 811.75 373.45
  Q 813.20 373.45 813.10 372.00
  Q 812.97 370.03 812.58 368.04
  Q 809.00 349.75 805.41 330.58
  C 805.03 328.56 803.95 327.30 802.40 326.03
  Q 782.34 309.49 762.29 292.95
  C 761.98 292.69 761.54 292.60 761.15 292.73
  A 0.52 0.52 0.0 0 0 760.83 293.42
  L 792.09 371.48"
/>
<path stroke="#6e3b56" vector-effect="non-scaling-stroke" d="
  M 920.55 371.54
  L 951.32 294.78
  Q 952.89 290.87 949.64 293.55
  Q 930.60 309.23 909.65 326.59
  Q 907.74 328.17 907.27 330.62
  Q 903.64 349.60 899.83 369.49
  Q 899.56 370.88 899.57 372.29
  A 1.19 1.18 89.8 0 0 900.75 373.47
  L 917.71 373.46
  Q 919.78 373.46 920.55 371.54"
/>
<path stroke="#556c5c" vector-effect="non-scaling-stroke" d="
  M 951.60 389.28
  C 958.45 384.36 962.85 378.52 964.74 370.04
  C 965.19 368.04 965.73 365.99 965.85 363.96
  Q 966.47 353.89 964.41 345.06
  Q 963.99 343.23 963.77 341.65
  A 1.44 1.42 58.6 0 1 964.01 340.63
  Q 966.91 336.51 965.84 332.34
  Q 960.90 313.10 955.69 293.33
  A 0.79 0.79 0.0 0 0 954.41 292.93
  Q 953.99 293.30 953.79 293.82
  Q 938.82 331.21 922.56 371.72
  C 921.78 373.64 922.34 375.81 923.58 377.39
  Q 937.93 395.51 950.67 412.03
  Q 951.44 413.03 952.31 413.90
  A 1.20 1.19 -45.2 0 0 954.01 413.89
  Q 955.66 412.20 957.55 410.31
  C 958.71 409.14 958.79 407.70 958.17 406.27
  Q 954.76 398.27 951.35 390.18
  Q 951.11 389.63 951.60 389.28"
/>
<path stroke="#6d7010" vector-effect="non-scaling-stroke" d="
  M 853.74 318.75
  L 825.61 360.03
  A 8.20 8.19 -33.6 0 0 824.35 366.28
  Q 824.74 368.22 824.90 368.97
  Q 825.58 372.35 827.56 369.52
  Q 840.87 350.51 854.04 331.76
  Q 855.29 329.99 855.21 327.37
  Q 855.08 322.88 855.07 319.16
  Q 855.07 316.81 853.74 318.75"
/>
<path stroke="#7b4c0e" vector-effect="non-scaling-stroke" d="
  M 888.32 365.94
  Q 888.71 362.77 886.92 360.14
  L 858.55 318.45
  Q 857.89 317.48 857.85 318.66
  Q 857.70 323.41 857.78 328.67
  Q 857.80 330.28 858.78 331.68
  Q 872.61 351.32 885.22 369.41
  Q 887.02 372.00 887.77 368.93
  Q 888.13 367.45 888.32 365.94"
/>
<path stroke="#6d7010" vector-effect="non-scaling-stroke" d="
  M 973.50 327.48
  C 971.24 331.57 968.76 335.73 966.55 339.88
  Q 965.59 341.68 965.84 342.89
  C 967.75 352.14 968.68 359.71 966.76 369.15
  Q 964.13 382.10 954.68 389.16
  A 1.12 1.11 -17.5 0 0 954.23 390.01
  C 954.19 391.18 954.15 392.29 954.62 393.39
  Q 957.07 399.15 959.66 405.26
  A 1.37 1.37 0.0 0 0 961.92 405.67
  L 983.67 382.59
  A 4.19 4.18 -28.8 0 0 984.73 378.96
  L 975.09 327.74
  Q 974.65 325.42 973.50 327.48"
/>
<path stroke="#7b4c0e" vector-effect="non-scaling-stroke" d="
  M 752.97 405.09
  Q 755.37 399.24 757.95 393.15
  C 758.52 391.80 758.67 389.89 757.40 388.87
  C 743.93 378.03 742.83 359.82 746.52 343.81
  C 746.84 342.40 746.64 341.19 745.95 339.94
  Q 742.54 333.77 738.97 327.45
  Q 738.80 327.15 738.49 327.03
  A 0.54 0.53 -73.8 0 0 737.77 327.43
  Q 733.31 351.23 728.61 375.84
  C 728.20 378.01 727.49 380.75 729.23 382.57
  Q 739.16 393.00 748.70 403.32
  Q 749.81 404.52 751.00 405.55
  Q 752.31 406.69 752.97 405.09"
/>
<path stroke="#6d7010" vector-effect="non-scaling-stroke" d="
  M 978.14 331.56
  A 0.30 0.30 0.0 0 0 977.62 331.83
  L 980.27 345.53
  A 0.30 0.30 0.0 0 0 980.36 345.70
  L 1020.80 382.28
  A 0.30 0.30 0.0 0 0 1021.30 382.06
  L 1021.28 377.02
  A 0.30 0.30 0.0 0 0 1021.20 376.81
  L 978.14 331.56"
/>
<path stroke="#556c5c" vector-effect="non-scaling-stroke" d="
  M 857.83 464.93
  Q 857.83 466.16 858.27 465.01
  Q 859.01 463.06 858.96 460.79
  C 858.92 458.45 859.69 456.44 859.88 454.17
  Q 860.01 452.50 860.24 450.83
  Q 866.50 403.88 872.34 359.49
  Q 872.91 355.17 870.78 352.14
  Q 864.79 343.64 858.59 334.76
  Q 857.82 333.66 857.82 335.00
  L 857.83 464.93"
/>
<path stroke="#2a5b72" vector-effect="non-scaling-stroke" d="
  M 842.05 352.02
  C 840.74 353.94 839.84 356.72 840.22 359.00
  Q 840.96 363.50 841.58 368.31
  Q 847.59 415.09 854.38 465.62
  Q 854.41 465.82 854.61 465.80
  L 854.86 465.79
  Q 855.00 465.78 855.00 465.64
  L 855.01 335.52
  Q 855.01 333.54 853.86 335.15
  Q 847.65 343.88 842.05 352.02"
/>
<path stroke="#1f5725" vector-effect="non-scaling-stroke" d="
  M 1019.38 383.48
  Q 1019.45 383.39 1019.37 383.32
  Q 1000.40 366.18 981.45 348.98
  Q 980.86 348.44 981.00 349.23
  L 981.97 354.72
  A 1.95 1.92 -76.6 0 0 982.71 355.94
  Q 1000.44 369.42 1019.12 383.51
  Q 1019.26 383.62 1019.37 383.48
  L 1019.38 383.48"
/>
<path stroke="#1f5725" vector-effect="non-scaling-stroke" d="
  M 1020.02 370.04
  C 1013.33 364.20 1006.79 357.92 1000.34 352.06
  Q 1000.23 351.96 1000.13 352.06
  L 1000.13 352.07
  Q 1000.01 352.20 1000.13 352.32
  Q 1010.44 362.57 1020.22 373.37
  Q 1020.92 374.15 1020.97 373.10
  C 1021.04 371.77 1021.15 371.02 1020.02 370.04"
/>
<path stroke="#77292d" vector-effect="non-scaling-stroke" d="
  M 983.20 358.58
  A 0.30 0.30 0.0 0 0 982.73 358.88
  L 987.04 381.49
  A 0.30 0.30 0.0 0 1 986.96 381.75
  L 981.25 387.81
  A 0.30 0.30 0.0 0 0 981.30 388.27
  L 1020.54 414.11
  A 0.30 0.30 0.0 0 0 1021.01 413.86
  L 1020.99 387.47
  A 0.30 0.30 0.0 0 0 1020.87 387.23
  L 983.20 358.58"
/>
<path stroke="#77292d" vector-effect="non-scaling-stroke" d="
  M 794.92 378.52
  C 813.83 425.94 832.87 473.06 851.95 520.67
  A 0.52 0.51 -37.0 0 0 852.83 520.79
  Q 853.03 520.53 852.97 520.21
  Q 838.91 449.18 824.72 377.85
  A 2.99 2.99 0.0 0 0 821.79 375.45
  L 795.00 375.46
  A 0.75 0.75 0.0 0 0 794.26 376.34
  Q 794.44 377.31 794.92 378.52"
/>
<path stroke="#77292d" vector-effect="non-scaling-stroke" d="
  M 860.90 520.39
  L 918.22 377.34
  Q 918.98 375.45 916.95 375.45
  L 890.75 375.45
  A 2.86 2.85 -84.3 0 0 887.95 377.75
  Q 874.18 447.05 859.96 518.83
  Q 859.82 519.56 859.92 520.28
  Q 860.20 522.14 860.90 520.39"
/>
<path stroke="#1f4d23" vector-effect="non-scaling-stroke" d="
  M 794.08 381.60
  Q 793.36 379.79 792.52 377.91
  A 0.77 0.76 -38.3 0 0 791.22 377.76
  L 762.15 414.94
  Q 760.92 416.51 762.27 417.99
  L 776.56 433.69
  A 0.88 0.88 0.0 0 0 777.71 433.82
  Q 790.89 424.54 804.27 415.15
  C 806.90 413.30 805.94 411.09 804.96 408.67
  Q 799.30 394.71 794.08 381.60"
/>
<path stroke="#1f4d23" vector-effect="non-scaling-stroke" d="
  M 920.15 377.78
  L 907.11 410.31
  A 4.17 4.16 28.5 0 0 908.58 415.27
  L 934.94 433.80
  A 0.91 0.90 38.7 0 0 936.14 433.67
  L 950.62 417.77
  A 2.02 2.02 0.0 0 0 950.71 415.17
  L 921.35 377.61
  A 0.70 0.70 0.0 0 0 920.15 377.78"
/>
<path stroke="#0e415f" vector-effect="non-scaling-stroke" d="
  M 1020.43 425.03
  A 0.37 0.37 0.0 0 0 1020.99 424.71
  L 1020.99 416.82
  A 0.37 0.37 0.0 0 0 1020.82 416.51
  L 979.95 389.56
  A 0.37 0.37 0.0 0 0 979.48 389.62
  L 973.07 396.46
  A 0.37 0.37 0.0 0 0 973.16 397.03
  L 1020.43 425.03"
/>
<path stroke="#6d7010" vector-effect="non-scaling-stroke" d="
  M 799.98 433.17
  Q 800.23 433.37 800.39 433.66
  Q 818.73 469.05 835.44 501.83
  Q 838.63 508.07 841.97 512.42
  Q 845.73 517.30 849.17 522.14
  A 0.64 0.63 59.6 0 0 849.96 522.35
  Q 850.55 522.06 850.31 521.45
  Q 829.73 470.12 808.77 417.87
  A 2.49 2.49 0.0 0 0 805.03 416.76
  L 780.16 434.26
  Q 778.26 435.59 779.71 437.40
  L 781.72 439.90
  Q 783.03 441.53 784.88 440.54
  L 798.76 433.08
  A 1.15 1.14 -40.7 0 1 799.98 433.17"
/>
<path stroke="#6d7010" vector-effect="non-scaling-stroke" d="
  M 912.44 433.44
  A 1.00 1.00 0.0 0 1 913.81 433.02
  L 927.94 440.65
  Q 929.45 441.47 930.64 440.22
  Q 931.88 438.92 932.85 437.54
  Q 934.28 435.49 932.24 434.06
  L 907.41 416.59
  A 2.00 1.99 47.6 0 0 905.27 416.49
  Q 904.20 417.11 903.75 418.25
  Q 881.87 472.75 862.34 521.53
  Q 862.12 522.06 862.67 522.22
  Q 862.81 522.26 862.99 522.27
  Q 863.54 522.29 863.88 521.79
  Q 867.16 516.94 870.70 512.37
  Q 873.86 508.30 876.64 502.87
  Q 894.64 467.75 912.44 433.44"
/>
<path stroke="#6d7010" vector-effect="non-scaling-stroke" d="
  M 994.42 473.12
  Q 974.43 445.33 953.55 418.70
  A 0.91 0.91 0.0 0 0 952.16 418.65
  L 938.53 433.68
  A 2.08 2.08 0.0 0 0 938.88 436.77
  L 994.43 475.83
  A 0.54 0.54 0.0 0 0 995.27 475.33
  Q 995.14 474.12 994.42 473.12"
/>
<path stroke="#7b4c0e" vector-effect="non-scaling-stroke" d="
  M 759.28 418.85
  C 744.16 438.05 730.03 456.51 717.63 474.44
  Q 717.34 474.86 717.65 475.26
  Q 717.81 475.46 718.08 475.46
  Q 718.48 475.46 718.81 475.23
  Q 744.95 456.82 773.38 436.88
  A 2.28 2.28 0.0 0 0 773.75 433.48
  L 760.40 418.81
  A 0.74 0.73 -46.9 0 0 759.28 418.85"
/>
<path stroke="#6e3b56" vector-effect="non-scaling-stroke" d="
  M 798.27 435.50
  C 794.27 437.11 790.24 439.68 786.34 441.78
  Q 785.80 442.07 785.56 442.63
  A 1.24 1.24 0.0 0 0 785.73 443.89
  Q 788.91 447.93 792.33 451.28
  A 2.06 2.05 52.6 0 0 794.77 451.61
  L 802.25 447.41
  Q 804.77 446.00 803.44 443.43
  L 799.56 435.97
  Q 799.13 435.15 798.27 435.50"
/>
<path stroke="#6e3b56" vector-effect="non-scaling-stroke" d="
  M 926.75 442.01
  L 914.54 435.46
  Q 913.61 434.96 913.13 435.90
  L 909.08 443.79
  A 2.61 2.61 0.0 0 0 910.13 447.27
  L 918.04 451.69
  A 1.89 1.87 -53.1 0 0 920.30 451.36
  Q 923.85 447.71 926.76 444.20
  Q 927.58 443.21 926.84 442.10
  A 0.20 0.20 0.0 0 0 926.75 442.01"
/>
<path stroke="#77292d" vector-effect="non-scaling-stroke" d="
  M 721.48 477.03
  C 742.66 470.47 762.64 464.07 783.17 457.63
  Q 786.15 456.69 785.57 453.62
  Q 784.96 450.40 784.08 446.93
  C 783.17 443.32 780.25 440.79 777.79 438.10
  Q 776.70 436.90 775.37 437.83
  Q 747.55 457.33 721.09 476.08
  Q 720.20 476.71 721.18 477.03
  A 0.47 0.47 0.0 0 0 721.48 477.03"
/>
<path stroke="#7b4c0e" vector-effect="non-scaling-stroke" d="
  M 928.17 448.49
  Q 927.78 450.93 927.11 453.14
  A 3.62 3.62 0.0 0 0 929.49 457.64
  L 991.08 477.02
  Q 992.21 477.38 991.70 476.31
  Q 991.51 475.89 991.12 475.62
  Q 965.55 457.75 937.63 438.06
  Q 936.11 436.99 934.80 438.26
  C 931.78 441.17 928.88 444.16 928.17 448.49"
/>
<path stroke="#2a5b72" vector-effect="non-scaling-stroke" d="
  M 829.73 494.51
  L 806.28 448.97
  A 1.34 1.34 0.0 0 0 804.44 448.41
  L 795.15 453.62
  A 0.46 0.46 0.0 0 0 795.00 454.30
  Q 796.62 456.43 798.33 458.41
  Q 812.39 474.71 828.65 494.69
  Q 828.92 495.03 829.34 495.07
  A 0.39 0.39 0.0 0 0 829.73 494.51"
/>
<path stroke="#2a5b72" vector-effect="non-scaling-stroke" d="
  M 906.51 448.76
  Q 895.40 470.24 883.11 494.15
  Q 882.90 494.56 883.04 495.00
  A 0.29 0.28 -33.8 0 0 883.53 495.09
  L 916.99 455.16
  Q 918.05 453.89 916.60 453.09
  L 908.01 448.31
  A 1.10 1.10 0.0 0 0 906.51 448.76"
/>
<path stroke="#77292d" vector-effect="non-scaling-stroke" d="
  M 808.67 503.50
  A 0.86 0.86 0.0 0 1 809.74 503.82
  Q 831.32 537.59 852.73 571.01
  Q 853.08 571.57 853.72 571.63
  A 1.16 1.16 0.0 0 0 855.00 570.47
  Q 854.99 554.00 855.03 537.58
  C 855.03 534.89 854.12 532.49 852.64 530.31
  Q 844.05 517.69 834.64 505.61
  Q 812.49 477.14 788.44 450.13
  A 1.08 1.05 72.4 0 0 787.77 449.77
  Q 786.68 449.62 786.80 450.14
  Q 794.20 483.70 803.32 524.73
  Q 803.84 527.06 804.27 524.72
  Q 806.30 513.64 808.06 504.25
  Q 808.16 503.73 808.67 503.50"
/>
<path stroke="#1f4d23" vector-effect="non-scaling-stroke" d="
  M 903.81 503.47
  L 904.29 503.86
  Q 904.64 504.13 904.72 504.57
  L 908.38 524.50
  Q 908.84 527.01 909.39 524.52
  L 925.68 451.04
  Q 926.16 448.89 924.34 450.13
  Q 923.91 450.42 923.55 450.83
  Q 901.26 476.12 880.75 502.08
  Q 869.69 516.08 859.55 531.06
  Q 857.75 533.72 857.76 537.23
  Q 857.79 554.31 857.82 570.09
  Q 857.82 573.12 859.91 570.98
  Q 859.96 570.93 860.54 570.03
  Q 881.84 536.80 903.10 503.59
  A 0.49 0.49 0.0 0 1 903.81 503.47"
/>
<path stroke="#2a5b72" vector-effect="non-scaling-stroke" d="
  M 784.31 459.32
  L 724.55 478.12
  Q 721.17 479.18 724.72 479.20
  Q 732.17 479.23 741.25 478.28
  C 745.87 477.79 750.92 478.26 755.78 477.64
  C 762.36 476.81 769.17 477.21 775.87 476.48
  Q 781.65 475.84 787.95 476.00
  Q 790.51 476.06 789.97 473.55
  L 787.26 461.04
  A 2.32 2.31 75.1 0 0 784.31 459.32"
/>
<path stroke="#556c5c" vector-effect="non-scaling-stroke" d="
  M 987.51 477.86
  Q 957.89 468.72 929.18 459.51
  Q 925.93 458.47 925.23 461.80
  Q 924.18 466.79 922.97 471.97
  Q 922.54 473.79 923.10 475.48
  A 0.79 0.79 0.0 0 0 923.88 476.03
  Q 931.54 475.74 939.08 476.66
  C 944.27 477.29 949.44 476.79 954.69 477.42
  C 961.58 478.25 968.77 477.85 975.74 478.67
  C 980.08 479.18 984.41 478.99 988.78 479.25
  Q 990.87 479.37 988.99 478.45
  Q 988.27 478.09 987.51 477.86"
/>
<path stroke="#1f4d23" vector-effect="non-scaling-stroke" d="
  M 806.10 525.56
  A 0.36 0.36 0.0 0 0 806.75 525.82
  L 812.81 516.84
  A 0.36 0.36 0.0 0 0 812.87 516.66
  L 813.04 512.73
  A 0.36 0.36 0.0 0 0 812.98 512.52
  L 809.97 507.88
  A 0.36 0.36 0.0 0 0 809.32 508.01
  L 806.10 525.56"
/>
<path stroke="#6e3b56" vector-effect="non-scaling-stroke" d="
  M 903.64 509.22
  Q 903.24 507.04 901.99 508.87
  C 900.50 511.04 899.18 512.81 899.74 515.66
  Q 900.05 517.20 901.07 518.71
  Q 903.17 521.81 905.39 525.03
  Q 906.86 527.16 906.41 524.61
  L 903.64 509.22"
/>
</g>
<path fill="#a9d7b8" d="
  M 0.00 0.00
  L 212.00 0.00
  L 212.82 0.50
  Q 195.47 3.89 169.75 7.25
  Q 166.41 7.68 164.25 7.88
  Q 161.51 8.12 158.76 8.52
  C 155.18 9.04 151.72 8.83 148.21 9.43
  C 143.90 10.17 139.65 9.64 135.36 10.19
  C 131.61 10.68 127.81 10.98 124.03 10.99
  Q 103.15 11.03 81.53 10.99
  C 76.46 10.98 71.50 10.17 66.43 10.03
  Q 61.23 9.88 55.10 9.25
  Q 47.56 8.48 40.00 7.81
  Q 25.22 6.48 0.00 1.91
  L 0.00 0.00
  Z"
/>
<path fill="#3d431a" d="
  M 212.00 0.00
  L 215.57 0.00
  Q 214.24 0.80 212.82 0.50
  L 212.00 0.00
  Z"
/>
<path fill="#000000" d="
  M 215.57 0.00
  L 224.22 0.00
  Q 193.92 6.28 163.15 9.81
  C 160.62 10.10 158.12 10.00 155.60 10.49
  C 151.49 11.29 147.37 10.85 143.20 11.48
  Q 139.95 11.98 136.56 12.03
  C 127.58 12.16 118.66 12.98 109.80 13.00
  C 100.38 13.03 90.83 13.22 81.53 12.51
  Q 74.98 12.00 68.47 11.98
  C 64.67 11.97 60.82 11.19 56.93 11.04
  C 52.05 10.86 47.46 10.20 42.25 9.79
  Q 28.26 8.68 0.00 3.70
  L 0.00 1.91
  Q 25.22 6.48 40.00 7.81
  Q 47.56 8.48 55.10 9.25
  Q 61.23 9.88 66.43 10.03
  C 71.50 10.17 76.46 10.98 81.53 10.99
  Q 103.15 11.03 124.03 10.99
  C 127.81 10.98 131.61 10.68 135.36 10.19
  C 139.65 9.64 143.90 10.17 148.21 9.43
  C 151.72 8.83 155.18 9.04 158.76 8.52
  Q 161.51 8.12 164.25 7.88
  Q 166.41 7.68 169.75 7.25
  Q 195.47 3.89 212.82 0.50
  Q 214.24 0.80 215.57 0.00
  Z"
/>
<path fill="#d9df20" d="
  M 224.22 0.00
  L 437.30 0.00
  Q 437.25 0.12 437.23 0.27
  A 0.43 0.41 80.2 0 1 437.02 0.58
  Q 283.98 92.05 105.50 93.75
  Q 95.38 93.84 85.51 93.52
  Q 47.33 92.25 9.51 86.91
  Q 4.72 86.24 0.00 85.45
  L 0.00 3.70
  Q 28.26 8.68 42.25 9.79
  C 47.46 10.20 52.05 10.86 56.93 11.04
  C 60.82 11.19 64.67 11.97 68.47 11.98
  Q 74.98 12.00 81.53 12.51
  C 90.83 13.22 100.38 13.03 109.80 13.00
  C 118.66 12.98 127.58 12.16 136.56 12.03
  Q 139.95 11.98 143.20 11.48
  C 147.37 10.85 151.49 11.29 155.60 10.49
  C 158.12 10.00 160.62 10.10 163.15 9.81
  Q 193.92 6.28 224.22 0.00
  Z"
/>
<path fill="#000000" d="
  M 437.30 0.00
  L 441.22 0.00
  Q 304.43 83.11 144.73 94.03
  Q 135.17 94.68 124.76 94.95
  Q 96.25 95.69 71.00 94.55
  Q 36.93 93.01 0.00 87.20
  L 0.00 85.45
  Q 4.72 86.24 9.51 86.91
  Q 47.33 92.25 85.51 93.52
  Q 95.38 93.84 105.50 93.75
  Q 283.98 92.05 437.02 0.58
  A 0.43 0.41 80.2 0 0 437.23 0.27
  Q 437.25 0.12 437.30 0.00
  Z"
/>
<path fill="#3dad4a" d="
  M 441.22 0.00
  L 499.85 0.00
  Q 498.15 1.88 494.28 4.57
  Q 351.40 103.89 180.12 123.99
  Q 131.63 129.67 75.02 127.82
  C 72.55 127.74 70.14 127.29 67.75 127.26
  Q 59.31 127.12 53.98 126.71
  Q 26.90 124.59 0.00 120.59
  L 0.00 87.20
  Q 36.93 93.01 71.00 94.55
  Q 96.25 95.69 124.76 94.95
  Q 135.17 94.68 144.73 94.03
  Q 304.43 83.11 441.22 0.00
  Z"
/>
<path fill="#000000" d="
  M 499.85 0.00
  L 503.81 0.00
  Q 497.09 4.64 490.31 9.29
  Q 352.34 103.80 187.18 124.80
  Q 177.58 126.03 167.30 126.97
  Q 141.61 129.34 117.00 129.87
  Q 59.06 131.11 0.00 122.26
  L 0.00 120.59
  Q 26.90 124.59 53.98 126.71
  Q 59.31 127.12 67.75 127.26
  C 70.14 127.29 72.55 127.74 75.02 127.82
  Q 131.63 129.67 180.12 123.99
  Q 351.40 103.89 494.28 4.57
  Q 498.15 1.88 499.85 0.00
  Z"
/>
<path fill="#f5971c" d="
  M 503.81 0.00
  L 634.09 0.00
  Q 512.16 117.78 355.01 174.24
  Q 192.35 232.68 17.51 215.80
  Q 12.14 215.28 0.00 213.83
  L 0.00 122.26
  Q 59.06 131.11 117.00 129.87
  Q 141.61 129.34 167.30 126.97
  Q 177.58 126.03 187.18 124.80
  Q 352.34 103.80 490.31 9.29
  Q 497.09 4.64 503.81 0.00
  Z"
/>
<path fill="#000000" d="
  M 634.09 0.00
  L 636.53 0.00
  Q 562.17 72.39 472.32 122.60
  Q 343.62 194.53 196.47 214.27
  Q 114.25 225.30 32.25 218.76
  Q 18.51 217.67 0.00 215.61
  L 0.00 213.83
  Q 12.14 215.28 17.51 215.80
  Q 192.35 232.68 355.01 174.24
  Q 512.16 117.78 634.09 0.00
  Z"
/>
<path fill="#ee5259" d="
  M 636.53 0.00
  L 680.11 0.00
  L 680.39 0.21
  A 0.30 0.30 0.0 0 1 680.43 0.66
  Q 584.93 100.72 463.50 163.31
  Q 320.05 237.26 157.80 250.53
  C 153.97 250.84 150.11 250.88 146.29 251.30
  C 139.34 252.06 132.47 251.89 125.71 252.36
  Q 119.71 252.77 113.77 252.86
  Q 92.16 253.17 69.85 252.77
  C 65.78 252.69 61.61 252.02 57.51 252.02
  C 50.12 252.02 42.81 251.31 35.76 250.84
  Q 17.84 249.66 0.00 247.50
  L 0.00 215.61
  Q 18.51 217.67 32.25 218.76
  Q 114.25 225.30 196.47 214.27
  Q 343.62 194.53 472.32 122.60
  Q 562.17 72.39 636.53 0.00
  Z"
/>
<path fill="#000000" d="
  M 680.11 0.00
  L 683.38 0.00
  L 653.85 29.71
  A 0.52 0.51 -46.1 0 0 653.86 30.45
  L 742.74 112.28
  Q 743.60 113.07 744.75 113.26
  L 761.22 116.02
  Q 762.13 116.17 761.59 115.42
  L 701.76 32.25
  Q 701.39 31.74 702.02 31.74
  L 735.28 31.75
  Q 736.07 31.75 735.60 31.11
  L 713.01 0.00
  L 715.28 0.00
  L 737.81 31.13
  A 1.57 1.56 71.7 0 0 739.07 31.77
  L 1024.00 32.02
  L 1024.00 34.14
  L 749.28 34.11
  Q 748.42 34.11 748.92 34.81
  L 762.44 53.53
  A 1.17 1.16 71.8 0 0 763.38 54.01
  L 1024.00 54.01
  L 1024.00 56.30
  L 765.13 56.28
  A 0.38 0.37 71.8 0 0 764.83 56.88
  L 791.09 93.11
  Q 791.38 93.51 791.87 93.51
  L 1024.00 93.51
  L 1024.00 95.69
  L 793.58 95.67
  A 0.32 0.31 72.2 0 0 793.33 96.17
  L 807.06 115.16
  A 1.11 1.10 -18.1 0 0 807.95 115.61
  L 853.75 115.61
  Q 854.37 115.61 854.48 115.00
  Q 854.67 113.99 854.85 112.98
  Q 855.59 108.87 857.71 112.17
  Q 858.27 113.05 857.93 114.65
  A 0.80 0.79 -84.1 0 0 858.70 115.61
  L 1024.00 115.60
  L 1024.00 117.77
  L 859.80 117.76
  A 0.99 0.99 0.0 0 0 858.90 119.16
  Q 859.47 120.42 859.78 121.86
  Q 863.04 136.64 866.04 149.56
  A 0.91 0.91 0.0 0 0 866.93 150.27
  L 1024.00 150.27
  L 1024.00 152.38
  L 867.07 152.38
  Q 866.63 152.38 866.72 152.81
  L 870.95 171.75
  A 0.70 0.68 83.7 0 0 871.62 172.30
  L 1024.00 172.29
  L 1024.00 174.56
  L 872.28 174.53
  A 0.57 0.57 0.0 0 0 871.73 175.23
  L 879.35 209.13
  A 0.45 0.45 0.0 0 0 879.79 209.48
  Q 900.29 209.49 920.81 209.45
  Q 922.32 209.45 923.10 208.13
  Q 923.56 207.34 923.90 208.19
  Q 924.01 208.45 923.96 208.71
  Q 923.82 209.46 924.58 209.46
  L 1024.00 209.48
  L 1024.00 211.85
  L 924.59 211.82
  Q 923.97 211.82 923.91 212.44
  L 922.01 231.24
  Q 921.95 231.79 922.51 231.79
  L 1024.00 231.80
  L 1024.00 233.98
  L 922.99 233.99
  Q 921.77 233.99 921.64 235.21
  L 918.69 264.33
  A 2.46 2.44 -63.9 0 0 919.34 266.25
  L 928.02 275.51
  Q 928.41 275.92 928.86 275.57
  L 938.19 268.20
  Q 940.45 266.41 940.07 269.27
  Q 939.65 272.52 938.36 276.97
  Q 938.20 277.51 938.76 277.51
  L 949.24 277.50
  A 2.62 2.59 23.1 0 0 951.03 276.79
  L 963.75 264.65
  A 0.80 0.79 62.9 0 1 965.08 265.08
  L 967.31 276.86
  A 0.78 0.77 84.6 0 0 968.07 277.49
  L 1024.00 277.51
  L 1024.00 279.57
  L 968.56 279.54
  Q 967.80 279.54 967.94 280.29
  L 971.39 298.37
  Q 971.51 298.97 972.12 298.97
  L 1024.00 298.98
  L 1024.00 301.11
  L 972.74 301.07
  A 0.74 0.74 0.0 0 0 972.02 301.96
  Q 974.06 312.03 976.17 324.17
  C 976.75 327.50 980.75 330.98 983.03 333.08
  Q 983.62 333.63 984.42 333.63
  L 1024.00 333.59
  L 1024.00 335.66
  L 986.42 335.65
  Q 985.32 335.65 986.13 336.39
  L 1006.21 354.91
  A 1.30 1.25 65.5 0 0 1007.07 355.25
  L 1024.00 355.28
  L 1024.00 357.30
  L 1010.47 357.38
  Q 1008.55 357.40 1010.01 358.65
  Q 1017.00 364.66 1022.12 369.54
  A 2.03 1.99 -69.3 0 1 1022.74 370.95
  C 1022.77 372.52 1022.65 374.11 1022.90 375.68
  Q 1023.72 380.82 1022.73 387.51
  Q 1022.41 389.63 1024.00 392.02
  L 1024.00 576.00
  L 0.00 576.00
  L 0.00 247.50
  Q 17.84 249.66 35.76 250.84
  C 42.81 251.31 50.12 252.02 57.51 252.02
  C 61.61 252.02 65.78 252.69 69.85 252.77
  Q 92.16 253.17 113.77 252.86
  Q 119.71 252.77 125.71 252.36
  C 132.47 251.89 139.34 252.06 146.29 251.30
  C 150.11 250.88 153.97 250.84 157.80 250.53
  Q 320.05 237.26 463.50 163.31
  Q 584.93 100.72 680.43 0.66
  A 0.30 0.30 0.0 0 0 680.39 0.21
  L 680.11 0.00
  Z
  M 716.00 108.59
  Q 716.00 108.32 716.26 108.37
  L 739.10 112.30
  Q 740.31 112.51 739.41 111.68
  L 652.57 31.72
  A 0.66 0.65 -45.3 0 0 651.67 31.73
  Q 631.01 51.41 608.13 70.21
  A 0.71 0.71 0.0 0 0 608.15 71.33
  L 788.12 208.07
  A 0.60 0.59 -37.0 0 0 788.71 208.15
  L 788.99 208.05
  Q 789.38 207.90 789.66 208.21
  Q 792.67 211.57 793.81 212.43
  Q 810.13 224.77 826.42 237.19
  A 0.42 0.42 0.0 0 0 827.08 236.95
  L 832.05 214.83
  A 1.52 1.51 -62.7 0 0 831.59 213.38
  Q 776.36 163.41 716.17 108.95
  Q 716.01 108.81 716.00 108.59
  Z
  M 765.14 118.39
  L 721.75 111.02
  Q 720.80 110.86 721.51 111.50
  L 832.10 211.55
  Q 832.66 212.06 832.83 211.31
  L 838.53 185.74
  Q 838.66 185.16 838.25 184.74
  L 795.46 139.79
  Q 794.97 139.28 795.67 139.39
  C 799.37 140.01 803.00 139.80 806.74 140.45
  C 810.27 141.07 813.78 140.75 817.32 141.48
  Q 820.44 142.13 823.65 141.98
  Q 824.37 141.94 823.94 141.36
  L 745.93 33.60
  A 1.44 1.41 71.7 0 0 744.78 33.01
  L 705.21 33.01
  Q 704.42 33.01 704.88 33.65
  L 765.46 117.86
  Q 765.94 118.53 765.14 118.39
  Z
  M 557.71 109.13
  L 793.49 264.51
  A 0.28 0.27 -76.2 0 0 793.91 264.25
  L 788.71 211.60
  A 2.00 1.98 16.3 0 0 787.94 210.21
  L 606.45 72.31
  Q 605.97 71.95 605.51 72.33
  Q 582.63 91.00 557.70 108.45
  Q 557.21 108.80 557.71 109.13
  Z
  M 772.68 267.61
  Q 774.31 268.09 775.65 269.14
  Q 784.77 276.28 794.14 284.08
  Q 794.55 284.42 795.07 284.51
  Q 795.99 284.66 796.02 283.15
  A 1.80 1.57 -55.1 0 0 795.98 282.78
  Q 795.01 278.27 794.87 273.83
  Q 794.78 270.86 794.07 267.57
  Q 793.94 266.98 793.43 266.64
  L 556.18 110.31
  Q 555.62 109.94 555.06 110.32
  Q 539.89 120.81 524.39 130.56
  A 0.29 0.29 0.0 0 0 524.40 131.06
  L 774.03 279.01
  Q 775.31 279.77 774.84 278.36
  Q 773.24 273.49 772.34 267.91
  A 0.27 0.26 -86.0 0 1 772.68 267.61
  Z
  M 856.31 241.32
  Q 857.17 241.46 857.52 242.23
  Q 874.40 279.72 892.43 320.20
  Q 892.59 320.54 892.88 320.79
  Q 893.52 321.34 893.37 320.50
  L 856.62 117.76
  Q 856.33 116.18 856.05 117.76
  L 819.64 318.68
  Q 818.80 323.29 820.72 319.01
  L 855.33 241.85
  A 0.92 0.92 0.0 0 1 856.31 241.32
  Z
  M 827.36 143.95
  C 823.30 144.18 819.57 143.09 815.53 142.94
  C 810.97 142.78 806.33 141.57 801.54 141.78
  Q 800.64 141.82 801.26 142.47
  L 808.38 149.82
  A 1.46 1.45 67.6 0 0 809.42 150.26
  L 845.76 150.26
  A 0.98 0.98 0.0 0 0 846.72 149.49
  L 853.70 118.41
  Q 853.84 117.76 853.18 117.76
  L 809.51 117.79
  A 0.28 0.28 0.0 0 0 809.28 118.24
  L 827.57 143.50
  Q 827.88 143.92 827.36 143.95
  Z
  M 845.95 152.82
  A 0.35 0.35 0.0 0 0 845.60 152.39
  L 811.68 152.42
  A 0.35 0.35 0.0 0 0 811.42 153.01
  L 829.67 172.17
  A 0.35 0.35 0.0 0 0 829.92 172.28
  L 841.34 172.29
  A 0.35 0.35 0.0 0 0 841.68 172.02
  L 845.95 152.82
  Z
  M 840.61 184.92
  Q 832.84 219.28 824.95 254.55
  C 824.55 256.34 824.97 258.75 826.12 260.04
  Q 828.07 262.24 828.60 259.35
  Q 836.66 214.67 844.33 172.40
  Q 844.38 172.13 844.17 171.96
  A 0.46 0.46 0.0 0 0 843.42 172.22
  Q 842.08 178.43 840.61 184.92
  Z
  M 870.73 179.16
  Q 869.87 175.25 868.93 172.28
  Q 868.86 172.07 868.65 172.12
  L 868.64 172.13
  Q 868.43 172.18 868.46 172.40
  Q 876.39 216.08 884.39 260.14
  Q 884.65 261.58 885.75 260.62
  Q 886.64 259.86 887.16 258.74
  Q 888.13 256.72 887.62 254.54
  Q 879.67 220.02 870.73 179.16
  Z
  M 833.03 174.67
  A 0.34 0.34 0.0 0 0 832.79 175.24
  L 838.89 181.91
  A 0.34 0.34 0.0 0 0 839.47 181.76
  L 840.93 175.03
  A 0.34 0.34 0.0 0 0 840.59 174.61
  L 833.03 174.67
  Z
  M 906.81 230.74
  L 919.45 212.35
  Q 919.83 211.81 919.16 211.81
  L 880.44 211.82
  Q 879.94 211.82 880.05 212.30
  L 883.70 228.41
  A 4.31 4.30 83.6 0 0 887.90 231.77
  L 904.79 231.79
  Q 906.08 231.80 906.81 230.74
  Z
  M 823.39 253.50
  L 826.40 240.07
  A 0.87 0.86 -64.8 0 0 826.08 239.18
  Q 811.77 228.31 798.28 218.10
  Q 797.95 217.85 797.70 217.52
  Q 797.37 217.08 797.12 217.00
  Q 796.29 216.75 796.78 217.46
  Q 809.12 235.53 821.73 253.82
  A 0.92 0.92 0.0 0 0 823.39 253.50
  Z
  M 892.23 291.19
  C 901.33 266.87 910.01 242.37 919.00 218.00
  Q 919.12 217.68 919.02 217.34
  A 0.44 0.44 0.0 0 0 918.24 217.22
  Q 902.95 239.55 887.33 262.19
  C 885.87 264.32 885.46 266.07 885.85 268.46
  Q 887.77 280.23 889.89 291.00
  Q 890.72 295.22 892.23 291.19
  Z
  M 794.00 218.75
  C 802.77 242.97 811.81 267.81 820.81 292.16
  A 1.28 1.27 -3.8 0 0 821.73 292.96
  Q 822.43 293.11 822.57 292.39
  Q 824.84 280.22 826.96 268.13
  C 827.28 266.36 826.81 264.33 825.78 262.83
  Q 810.48 240.64 794.69 217.65
  Q 793.79 216.33 793.74 217.93
  Q 793.74 218.02 794.00 218.75
  Z
  M 799.38 238.66
  Q 795.83 228.80 792.13 219.24
  Q 791.09 216.55 791.39 219.42
  Q 793.65 241.29 795.63 262.79
  Q 796.11 268.03 796.74 272.42
  C 797.13 275.13 796.99 277.88 797.48 280.60
  C 798.14 284.33 797.90 287.96 798.58 291.63
  C 799.19 294.94 799.01 298.25 799.54 301.51
  C 800.29 306.14 799.73 313.57 803.38 317.12
  Q 808.62 322.20 813.82 327.12
  A 1.35 1.35 0.0 0 0 816.00 326.64
  Q 816.85 324.50 817.02 322.23
  C 817.16 320.42 817.80 318.96 818.00 317.17
  Q 818.21 315.29 818.59 313.37
  Q 819.76 307.52 820.77 301.60
  C 821.19 299.13 820.83 297.48 820.02 295.27
  Q 809.54 266.82 799.38 238.66
  Z
  M 920.53 219.09
  C 911.17 243.74 902.42 268.67 893.08 294.00
  C 891.51 298.27 891.74 301.30 892.55 305.57
  Q 894.61 316.49 896.37 326.31
  A 1.41 1.41 0.0 0 0 898.69 327.12
  Q 904.00 322.44 909.10 317.34
  C 911.75 314.70 912.13 311.10 912.50 307.50
  Q 916.94 263.44 921.25 219.26
  Q 921.53 216.47 920.53 219.09
  Z
  M 904.17 234.53
  A 0.34 0.34 0.0 0 0 903.89 234.00
  L 889.38 233.97
  A 0.34 0.34 0.0 0 0 889.14 234.55
  L 897.56 243.43
  A 0.34 0.34 0.0 0 0 898.09 243.39
  L 904.17 234.53
  Z
  M 889.62 254.62
  A 0.31 0.31 0.0 0 0 890.17 254.73
  L 896.31 246.08
  A 0.31 0.31 0.0 0 0 896.28 245.69
  L 885.60 234.43
  A 0.31 0.31 0.0 0 0 885.07 234.71
  L 889.62 254.62
  Z
  M 858.43 249.03
  A 0.32 0.32 0.0 0 0 857.82 249.17
  L 857.82 313.86
  A 0.32 0.32 0.0 0 0 857.88 314.04
  L 889.01 359.73
  A 0.32 0.32 0.0 0 0 889.59 359.61
  L 895.22 331.21
  A 0.32 0.32 0.0 0 0 895.20 331.02
  L 858.43 249.03
  Z
  M 853.72 250.20
  Q 836.30 289.03 818.43 328.91
  C 817.76 330.42 817.68 332.27 818.00 333.89
  Q 820.34 345.84 822.96 358.72
  Q 823.04 359.14 823.34 359.44
  A 0.38 0.37 39.5 0 0 823.91 359.39
  L 854.24 314.81
  A 4.35 4.32 -28.0 0 0 855.00 312.36
  L 855.00 250.48
  Q 855.00 247.34 853.72 250.20
  Z
  M 926.19 277.77
  Q 926.34 277.72 926.49 277.65
  Q 926.81 277.48 926.55 277.22
  L 918.72 269.29
  Q 918.27 268.83 918.21 269.47
  L 916.78 283.77
  Q 916.72 284.37 917.33 284.40
  Q 918.05 284.44 918.63 283.99
  Q 922.32 281.10 925.84 277.96
  Q 925.99 277.83 926.19 277.77
  Z
  M 742.78 330.46
  Q 743.22 331.29 743.72 331.81
  A 0.77 0.77 0.0 0 0 745.02 331.47
  L 755.86 289.95
  Q 756.28 288.34 755.77 286.75
  Q 753.35 279.35 749.86 271.54
  Q 749.72 271.23 749.63 270.90
  Q 749.51 270.49 749.08 270.50
  A 0.76 0.76 0.0 0 0 748.34 271.13
  Q 743.93 294.95 739.12 320.31
  C 738.44 323.93 741.09 327.26 742.78 330.46
  Z
  M 962.93 271.20
  C 960.94 275.81 959.02 280.57 957.36 285.14
  Q 956.29 288.07 956.98 290.68
  Q 962.50 311.59 967.59 331.34
  Q 967.85 332.36 968.79 331.88
  Q 969.05 331.75 969.49 330.98
  C 971.27 327.84 974.19 324.01 973.50 320.32
  Q 968.82 295.44 964.24 270.89
  A 0.45 0.45 0.0 0 0 963.66 270.54
  Q 963.14 270.71 962.93 271.20
  Z
  M 752.23 271.92
  C 753.69 276.16 755.75 280.83 757.44 284.93
  Q 758.34 287.10 760.56 288.94
  Q 783.08 307.57 805.48 326.08
  A 4.29 4.23 14.6 0 1 806.96 328.56
  L 815.13 371.15
  Q 815.57 373.45 817.91 373.46
  L 821.50 373.47
  Q 823.78 373.49 823.36 371.24
  Q 819.61 351.49 815.92 333.68
  Q 815.43 331.32 813.73 329.69
  Q 784.33 301.42 753.09 271.37
  Q 751.52 269.86 752.23 271.92
  Z
  M 960.19 273.34
  Q 960.65 272.21 960.67 272.13
  Q 961.39 269.42 959.37 271.36
  Q 930.17 299.42 898.81 329.63
  Q 897.10 331.27 896.65 333.47
  Q 894.55 343.63 889.14 371.19
  Q 888.68 373.50 891.03 373.50
  L 895.00 373.50
  A 2.75 2.75 0.0 0 0 897.69 371.26
  Q 901.34 351.84 905.92 328.15
  Q 906.10 327.19 906.83 326.59
  Q 928.55 308.66 952.28 289.04
  Q 954.44 287.25 954.85 286.28
  Q 957.57 279.73 960.19 273.34
  Z
  M 778.56 275.68
  L 797.29 306.98
  Q 797.93 308.05 798.02 306.81
  C 798.23 303.83 797.40 300.88 797.18 297.90
  C 796.99 295.17 797.30 289.33 794.83 287.26
  Q 786.95 280.65 779.59 274.78
  Q 776.59 272.38 778.56 275.68
  Z
  M 915.41 307.05
  C 921.84 296.05 928.53 285.32 934.72 274.51
  Q 935.24 273.60 934.28 274.02
  Q 933.53 274.35 932.90 274.86
  Q 925.58 280.76 918.27 286.87
  Q 916.36 288.46 916.13 290.65
  Q 915.29 298.65 914.46 307.14
  Q 914.39 307.87 915.00 307.47
  Q 915.26 307.31 915.41 307.05
  Z
  M 777.05 278.94
  Q 778.86 286.28 781.11 293.65
  C 781.54 295.05 782.39 296.86 783.28 297.72
  Q 789.53 303.81 795.64 309.46
  A 0.19 0.19 0.0 0 0 795.95 309.38
  Q 796.11 308.95 795.88 308.56
  Q 786.40 292.58 776.58 276.15
  Q 776.50 276.03 776.35 276.02
  Q 776.18 276.01 776.14 276.29
  Q 776.13 276.41 776.17 276.52
  C 776.47 277.37 776.83 278.05 777.05 278.94
  Z
  M 921.56 300.38
  Q 919.13 304.37 916.78 308.51
  Q 916.51 308.98 916.69 309.38
  A 0.35 0.34 -34.3 0 0 917.25 309.48
  Q 923.42 303.36 928.85 298.21
  Q 930.82 296.34 931.63 293.45
  Q 933.93 285.25 936.23 277.05
  Q 936.80 275.01 935.72 276.84
  Q 929.53 287.26 921.56 300.38
  Z
  M 947.64 280.05
  A 0.33 0.33 0.0 0 0 947.40 279.49
  L 937.74 279.55
  A 0.33 0.33 0.0 0 0 937.43 279.80
  L 936.37 283.90
  A 0.33 0.33 0.0 0 0 936.45 284.21
  L 939.57 287.49
  A 0.33 0.33 0.0 0 0 940.04 287.50
  L 947.64 280.05
  Z
  M 937.63 289.76
  A 0.45 0.45 0.0 0 0 937.65 289.14
  L 936.07 287.30
  A 0.45 0.45 0.0 0 0 935.29 287.47
  L 934.06 292.08
  A 0.45 0.45 0.0 0 0 934.81 292.52
  L 937.63 289.76
  Z
  M 761.24 390.36
  Q 757.86 398.48 754.32 406.67
  C 753.17 409.31 756.65 411.98 758.30 413.68
  A 1.63 1.62 41.8 0 0 760.74 413.55
  L 789.33 377.02
  A 5.42 5.39 -37.1 0 0 790.09 371.68
  L 758.53 292.98
  A 0.58 0.57 -38.4 0 0 757.53 292.87
  Q 756.91 293.75 756.64 294.78
  Q 751.56 314.11 746.86 332.15
  Q 745.71 336.53 748.47 340.50
  Q 749.16 341.50 748.84 342.69
  C 745.12 356.29 745.40 372.87 755.03 384.16
  C 756.72 386.15 758.89 387.62 760.94 389.21
  Q 761.53 389.67 761.24 390.36
  Z
  M 792.09 371.48
  Q 792.88 373.45 795.00 373.45
  L 811.75 373.45
  Q 813.20 373.45 813.10 372.00
  Q 812.97 370.03 812.58 368.04
  Q 809.00 349.75 805.41 330.58
  C 805.03 328.56 803.95 327.30 802.40 326.03
  Q 782.34 309.49 762.29 292.95
  C 761.98 292.69 761.54 292.60 761.15 292.73
  A 0.52 0.52 0.0 0 0 760.83 293.42
  L 792.09 371.48
  Z
  M 920.55 371.54
  L 951.32 294.78
  Q 952.89 290.87 949.64 293.55
  Q 930.60 309.23 909.65 326.59
  Q 907.74 328.17 907.27 330.62
  Q 903.64 349.60 899.83 369.49
  Q 899.56 370.88 899.57 372.29
  A 1.19 1.18 89.8 0 0 900.75 373.47
  L 917.71 373.46
  Q 919.78 373.46 920.55 371.54
  Z
  M 951.60 389.28
  C 958.45 384.36 962.85 378.52 964.74 370.04
  C 965.19 368.04 965.73 365.99 965.85 363.96
  Q 966.47 353.89 964.41 345.06
  Q 963.99 343.23 963.77 341.65
  A 1.44 1.42 58.6 0 1 964.01 340.63
  Q 966.91 336.51 965.84 332.34
  Q 960.90 313.10 955.69 293.33
  A 0.79 0.79 0.0 0 0 954.41 292.93
  Q 953.99 293.30 953.79 293.82
  Q 938.82 331.21 922.56 371.72
  C 921.78 373.64 922.34 375.81 923.58 377.39
  Q 937.93 395.51 950.67 412.03
  Q 951.44 413.03 952.31 413.90
  A 1.20 1.19 -45.2 0 0 954.01 413.89
  Q 955.66 412.20 957.55 410.31
  C 958.71 409.14 958.79 407.70 958.17 406.27
  Q 954.76 398.27 951.35 390.18
  Q 951.11 389.63 951.60 389.28
  Z
  M 853.74 318.75
  L 825.61 360.03
  A 8.20 8.19 -33.6 0 0 824.35 366.28
  Q 824.74 368.22 824.90 368.97
  Q 825.58 372.35 827.56 369.52
  Q 840.87 350.51 854.04 331.76
  Q 855.29 329.99 855.21 327.37
  Q 855.08 322.88 855.07 319.16
  Q 855.07 316.81 853.74 318.75
  Z
  M 888.32 365.94
  Q 888.71 362.77 886.92 360.14
  L 858.55 318.45
  Q 857.89 317.48 857.85 318.66
  Q 857.70 323.41 857.78 328.67
  Q 857.80 330.28 858.78 331.68
  Q 872.61 351.32 885.22 369.41
  Q 887.02 372.00 887.77 368.93
  Q 888.13 367.45 888.32 365.94
  Z
  M 973.50 327.48
  C 971.24 331.57 968.76 335.73 966.55 339.88
  Q 965.59 341.68 965.84 342.89
  C 967.75 352.14 968.68 359.71 966.76 369.15
  Q 964.13 382.10 954.68 389.16
  A 1.12 1.11 -17.5 0 0 954.23 390.01
  C 954.19 391.18 954.15 392.29 954.62 393.39
  Q 957.07 399.15 959.66 405.26
  A 1.37 1.37 0.0 0 0 961.92 405.67
  L 983.67 382.59
  A 4.19 4.18 -28.8 0 0 984.73 378.96
  L 975.09 327.74
  Q 974.65 325.42 973.50 327.48
  Z
  M 752.97 405.09
  Q 755.37 399.24 757.95 393.15
  C 758.52 391.80 758.67 389.89 757.40 388.87
  C 743.93 378.03 742.83 359.82 746.52 343.81
  C 746.84 342.40 746.64 341.19 745.95 339.94
  Q 742.54 333.77 738.97 327.45
  Q 738.80 327.15 738.49 327.03
  A 0.54 0.53 -73.8 0 0 737.77 327.43
  Q 733.31 351.23 728.61 375.84
  C 728.20 378.01 727.49 380.75 729.23 382.57
  Q 739.16 393.00 748.70 403.32
  Q 749.81 404.52 751.00 405.55
  Q 752.31 406.69 752.97 405.09
  Z
  M 978.14 331.56
  A 0.30 0.30 0.0 0 0 977.62 331.83
  L 980.27 345.53
  A 0.30 0.30 0.0 0 0 980.36 345.70
  L 1020.80 382.28
  A 0.30 0.30 0.0 0 0 1021.30 382.06
  L 1021.28 377.02
  A 0.30 0.30 0.0 0 0 1021.20 376.81
  L 978.14 331.56
  Z
  M 857.83 464.93
  Q 857.83 466.16 858.27 465.01
  Q 859.01 463.06 858.96 460.79
  C 858.92 458.45 859.69 456.44 859.88 454.17
  Q 860.01 452.50 860.24 450.83
  Q 866.50 403.88 872.34 359.49
  Q 872.91 355.17 870.78 352.14
  Q 864.79 343.64 858.59 334.76
  Q 857.82 333.66 857.82 335.00
  L 857.83 464.93
  Z
  M 842.05 352.02
  C 840.74 353.94 839.84 356.72 840.22 359.00
  Q 840.96 363.50 841.58 368.31
  Q 847.59 415.09 854.38 465.62
  Q 854.41 465.82 854.61 465.80
  L 854.86 465.79
  Q 855.00 465.78 855.00 465.64
  L 855.01 335.52
  Q 855.01 333.54 853.86 335.15
  Q 847.65 343.88 842.05 352.02
  Z
  M 1019.38 383.48
  Q 1019.45 383.39 1019.37 383.32
  Q 1000.40 366.18 981.45 348.98
  Q 980.86 348.44 981.00 349.23
  L 981.97 354.72
  A 1.95 1.92 -76.6 0 0 982.71 355.94
  Q 1000.44 369.42 1019.12 383.51
  Q 1019.26 383.62 1019.37 383.48
  L 1019.38 383.48
  Z
  M 1020.02 370.04
  C 1013.33 364.20 1006.79 357.92 1000.34 352.06
  Q 1000.23 351.96 1000.13 352.06
  L 1000.13 352.07
  Q 1000.01 352.20 1000.13 352.32
  Q 1010.44 362.57 1020.22 373.37
  Q 1020.92 374.15 1020.97 373.10
  C 1021.04 371.77 1021.15 371.02 1020.02 370.04
  Z
  M 983.20 358.58
  A 0.30 0.30 0.0 0 0 982.73 358.88
  L 987.04 381.49
  A 0.30 0.30 0.0 0 1 986.96 381.75
  L 981.25 387.81
  A 0.30 0.30 0.0 0 0 981.30 388.27
  L 1020.54 414.11
  A 0.30 0.30 0.0 0 0 1021.01 413.86
  L 1020.99 387.47
  A 0.30 0.30 0.0 0 0 1020.87 387.23
  L 983.20 358.58
  Z
  M 794.92 378.52
  C 813.83 425.94 832.87 473.06 851.95 520.67
  A 0.52 0.51 -37.0 0 0 852.83 520.79
  Q 853.03 520.53 852.97 520.21
  Q 838.91 449.18 824.72 377.85
  A 2.99 2.99 0.0 0 0 821.79 375.45
  L 795.00 375.46
  A 0.75 0.75 0.0 0 0 794.26 376.34
  Q 794.44 377.31 794.92 378.52
  Z
  M 860.90 520.39
  L 918.22 377.34
  Q 918.98 375.45 916.95 375.45
  L 890.75 375.45
  A 2.86 2.85 -84.3 0 0 887.95 377.75
  Q 874.18 447.05 859.96 518.83
  Q 859.82 519.56 859.92 520.28
  Q 860.20 522.14 860.90 520.39
  Z
  M 794.08 381.60
  Q 793.36 379.79 792.52 377.91
  A 0.77 0.76 -38.3 0 0 791.22 377.76
  L 762.15 414.94
  Q 760.92 416.51 762.27 417.99
  L 776.56 433.69
  A 0.88 0.88 0.0 0 0 777.71 433.82
  Q 790.89 424.54 804.27 415.15
  C 806.90 413.30 805.94 411.09 804.96 408.67
  Q 799.30 394.71 794.08 381.60
  Z
  M 920.15 377.78
  L 907.11 410.31
  A 4.17 4.16 28.5 0 0 908.58 415.27
  L 934.94 433.80
  A 0.91 0.90 38.7 0 0 936.14 433.67
  L 950.62 417.77
  A 2.02 2.02 0.0 0 0 950.71 415.17
  L 921.35 377.61
  A 0.70 0.70 0.0 0 0 920.15 377.78
  Z
  M 1020.43 425.03
  A 0.37 0.37 0.0 0 0 1020.99 424.71
  L 1020.99 416.82
  A 0.37 0.37 0.0 0 0 1020.82 416.51
  L 979.95 389.56
  A 0.37 0.37 0.0 0 0 979.48 389.62
  L 973.07 396.46
  A 0.37 0.37 0.0 0 0 973.16 397.03
  L 1020.43 425.03
  Z
  M 799.98 433.17
  Q 800.23 433.37 800.39 433.66
  Q 818.73 469.05 835.44 501.83
  Q 838.63 508.07 841.97 512.42
  Q 845.73 517.30 849.17 522.14
  A 0.64 0.63 59.6 0 0 849.96 522.35
  Q 850.55 522.06 850.31 521.45
  Q 829.73 470.12 808.77 417.87
  A 2.49 2.49 0.0 0 0 805.03 416.76
  L 780.16 434.26
  Q 778.26 435.59 779.71 437.40
  L 781.72 439.90
  Q 783.03 441.53 784.88 440.54
  L 798.76 433.08
  A 1.15 1.14 -40.7 0 1 799.98 433.17
  Z
  M 912.44 433.44
  A 1.00 1.00 0.0 0 1 913.81 433.02
  L 927.94 440.65
  Q 929.45 441.47 930.64 440.22
  Q 931.88 438.92 932.85 437.54
  Q 934.28 435.49 932.24 434.06
  L 907.41 416.59
  A 2.00 1.99 47.6 0 0 905.27 416.49
  Q 904.20 417.11 903.75 418.25
  Q 881.87 472.75 862.34 521.53
  Q 862.12 522.06 862.67 522.22
  Q 862.81 522.26 862.99 522.27
  Q 863.54 522.29 863.88 521.79
  Q 867.16 516.94 870.70 512.37
  Q 873.86 508.30 876.64 502.87
  Q 894.64 467.75 912.44 433.44
  Z
  M 994.42 473.12
  Q 974.43 445.33 953.55 418.70
  A 0.91 0.91 0.0 0 0 952.16 418.65
  L 938.53 433.68
  A 2.08 2.08 0.0 0 0 938.88 436.77
  L 994.43 475.83
  A 0.54 0.54 0.0 0 0 995.27 475.33
  Q 995.14 474.12 994.42 473.12
  Z
  M 759.28 418.85
  C 744.16 438.05 730.03 456.51 717.63 474.44
  Q 717.34 474.86 717.65 475.26
  Q 717.81 475.46 718.08 475.46
  Q 718.48 475.46 718.81 475.23
  Q 744.95 456.82 773.38 436.88
  A 2.28 2.28 0.0 0 0 773.75 433.48
  L 760.40 418.81
  A 0.74 0.73 -46.9 0 0 759.28 418.85
  Z
  M 798.27 435.50
  C 794.27 437.11 790.24 439.68 786.34 441.78
  Q 785.80 442.07 785.56 442.63
  A 1.24 1.24 0.0 0 0 785.73 443.89
  Q 788.91 447.93 792.33 451.28
  A 2.06 2.05 52.6 0 0 794.77 451.61
  L 802.25 447.41
  Q 804.77 446.00 803.44 443.43
  L 799.56 435.97
  Q 799.13 435.15 798.27 435.50
  Z
  M 926.75 442.01
  L 914.54 435.46
  Q 913.61 434.96 913.13 435.90
  L 909.08 443.79
  A 2.61 2.61 0.0 0 0 910.13 447.27
  L 918.04 451.69
  A 1.89 1.87 -53.1 0 0 920.30 451.36
  Q 923.85 447.71 926.76 444.20
  Q 927.58 443.21 926.84 442.10
  A 0.20 0.20 0.0 0 0 926.75 442.01
  Z
  M 721.48 477.03
  C 742.66 470.47 762.64 464.07 783.17 457.63
  Q 786.15 456.69 785.57 453.62
  Q 784.96 450.40 784.08 446.93
  C 783.17 443.32 780.25 440.79 777.79 438.10
  Q 776.70 436.90 775.37 437.83
  Q 747.55 457.33 721.09 476.08
  Q 720.20 476.71 721.18 477.03
  A 0.47 0.47 0.0 0 0 721.48 477.03
  Z
  M 928.17 448.49
  Q 927.78 450.93 927.11 453.14
  A 3.62 3.62 0.0 0 0 929.49 457.64
  L 991.08 477.02
  Q 992.21 477.38 991.70 476.31
  Q 991.51 475.89 991.12 475.62
  Q 965.55 457.75 937.63 438.06
  Q 936.11 436.99 934.80 438.26
  C 931.78 441.17 928.88 444.16 928.17 448.49
  Z
  M 829.73 494.51
  L 806.28 448.97
  A 1.34 1.34 0.0 0 0 804.44 448.41
  L 795.15 453.62
  A 0.46 0.46 0.0 0 0 795.00 454.30
  Q 796.62 456.43 798.33 458.41
  Q 812.39 474.71 828.65 494.69
  Q 828.92 495.03 829.34 495.07
  A 0.39 0.39 0.0 0 0 829.73 494.51
  Z
  M 906.51 448.76
  Q 895.40 470.24 883.11 494.15
  Q 882.90 494.56 883.04 495.00
  A 0.29 0.28 -33.8 0 0 883.53 495.09
  L 916.99 455.16
  Q 918.05 453.89 916.60 453.09
  L 908.01 448.31
  A 1.10 1.10 0.0 0 0 906.51 448.76
  Z
  M 808.67 503.50
  A 0.86 0.86 0.0 0 1 809.74 503.82
  Q 831.32 537.59 852.73 571.01
  Q 853.08 571.57 853.72 571.63
  A 1.16 1.16 0.0 0 0 855.00 570.47
  Q 854.99 554.00 855.03 537.58
  C 855.03 534.89 854.12 532.49 852.64 530.31
  Q 844.05 517.69 834.64 505.61
  Q 812.49 477.14 788.44 450.13
  A 1.08 1.05 72.4 0 0 787.77 449.77
  Q 786.68 449.62 786.80 450.14
  Q 794.20 483.70 803.32 524.73
  Q 803.84 527.06 804.27 524.72
  Q 806.30 513.64 808.06 504.25
  Q 808.16 503.73 808.67 503.50
  Z
  M 903.81 503.47
  L 904.29 503.86
  Q 904.64 504.13 904.72 504.57
  L 908.38 524.50
  Q 908.84 527.01 909.39 524.52
  L 925.68 451.04
  Q 926.16 448.89 924.34 450.13
  Q 923.91 450.42 923.55 450.83
  Q 901.26 476.12 880.75 502.08
  Q 869.69 516.08 859.55 531.06
  Q 857.75 533.72 857.76 537.23
  Q 857.79 554.31 857.82 570.09
  Q 857.82 573.12 859.91 570.98
  Q 859.96 570.93 860.54 570.03
  Q 881.84 536.80 903.10 503.59
  A 0.49 0.49 0.0 0 1 903.81 503.47
  Z
  M 784.31 459.32
  L 724.55 478.12
  Q 721.17 479.18 724.72 479.20
  Q 732.17 479.23 741.25 478.28
  C 745.87 477.79 750.92 478.26 755.78 477.64
  C 762.36 476.81 769.17 477.21 775.87 476.48
  Q 781.65 475.84 787.95 476.00
  Q 790.51 476.06 789.97 473.55
  L 787.26 461.04
  A 2.32 2.31 75.1 0 0 784.31 459.32
  Z
  M 987.51 477.86
  Q 957.89 468.72 929.18 459.51
  Q 925.93 458.47 925.23 461.80
  Q 924.18 466.79 922.97 471.97
  Q 922.54 473.79 923.10 475.48
  A 0.79 0.79 0.0 0 0 923.88 476.03
  Q 931.54 475.74 939.08 476.66
  C 944.27 477.29 949.44 476.79 954.69 477.42
  C 961.58 478.25 968.77 477.85 975.74 478.67
  C 980.08 479.18 984.41 478.99 988.78 479.25
  Q 990.87 479.37 988.99 478.45
  Q 988.27 478.09 987.51 477.86
  Z
  M 806.10 525.56
  A 0.36 0.36 0.0 0 0 806.75 525.82
  L 812.81 516.84
  A 0.36 0.36 0.0 0 0 812.87 516.66
  L 813.04 512.73
  A 0.36 0.36 0.0 0 0 812.98 512.52
  L 809.97 507.88
  A 0.36 0.36 0.0 0 0 809.32 508.01
  L 806.10 525.56
  Z
  M 903.64 509.22
  Q 903.24 507.04 901.99 508.87
  C 900.50 511.04 899.18 512.81 899.74 515.66
  Q 900.05 517.20 901.07 518.71
  Q 903.17 521.81 905.39 525.03
  Q 906.86 527.16 906.41 524.61
  L 903.64 509.22
  Z"
/>
<path fill="#3dad4a" d="
  M 683.38 0.00
  L 713.01 0.00
  L 735.60 31.11
  Q 736.07 31.75 735.28 31.75
  L 702.02 31.74
  Q 701.39 31.74 701.76 32.25
  L 761.59 115.42
  Q 762.13 116.17 761.22 116.02
  L 744.75 113.26
  Q 743.60 113.07 742.74 112.28
  L 653.86 30.45
  A 0.52 0.51 -46.1 0 1 653.85 29.71
  L 683.38 0.00
  Z"
/>
<path fill="#3d431a" d="
  M 715.28 0.00
  L 1024.00 0.00
  L 1024.00 32.02
  L 739.07 31.77
  A 1.57 1.56 71.7 0 1 737.81 31.13
  L 715.28 0.00
  Z"
/>
<path fill="#3dad4a" d="
  M 716.00 108.59
  Q 716.01 108.81 716.17 108.95
  Q 776.36 163.41 831.59 213.38
  A 1.52 1.51 -62.7 0 1 832.05 214.83
  L 827.08 236.95
  A 0.42 0.42 0.0 0 1 826.42 237.19
  Q 810.13 224.77 793.81 212.43
  Q 792.67 211.57 789.66 208.21
  Q 789.38 207.90 788.99 208.05
  L 788.71 208.15
  A 0.60 0.59 -37.0 0 1 788.12 208.07
  L 608.15 71.33
  A 0.71 0.71 0.0 0 1 608.13 70.21
  Q 631.01 51.41 651.67 31.73
  A 0.66 0.65 -45.3 0 1 652.57 31.72
  L 739.41 111.68
  Q 740.31 112.51 739.10 112.30
  L 716.26 108.37
  Q 716.00 108.32 716.00 108.59
  Z"
/>
<path fill="#d9df20" d="
  M 765.14 118.39
  Q 765.94 118.53 765.46 117.86
  L 704.88 33.65
  Q 704.42 33.01 705.21 33.01
  L 744.78 33.01
  A 1.44 1.41 71.7 0 1 745.93 33.60
  L 823.94 141.36
  Q 824.37 141.94 823.65 141.98
  Q 820.44 142.13 817.32 141.48
  C 813.78 140.75 810.27 141.07 806.74 140.45
  C 803.00 139.80 799.37 140.01 795.67 139.39
  Q 794.97 139.28 795.46 139.79
  L 838.25 184.74
  Q 838.66 185.16 838.53 185.74
  L 832.83 211.31
  Q 832.66 212.06 832.10 211.55
  L 721.51 111.50
  Q 720.80 110.86 721.75 111.02
  L 765.14 118.39
  Z"
/>
<path fill="#3dad4a" d="
  M 1024.00 34.14
  L 1024.00 54.01
  L 763.38 54.01
  A 1.17 1.16 71.8 0 1 762.44 53.53
  L 748.92 34.81
  Q 748.42 34.11 749.28 34.11
  L 1024.00 34.14
  Z"
/>
<path fill="#3d431a" d="
  M 1024.00 56.30
  L 1024.00 93.51
  L 791.87 93.51
  Q 791.38 93.51 791.09 93.11
  L 764.83 56.88
  A 0.38 0.37 71.8 0 1 765.13 56.28
  L 1024.00 56.30
  Z"
/>
<path fill="#ee5259" d="
  M 793.49 264.51
  L 557.71 109.13
  Q 557.21 108.80 557.70 108.45
  Q 582.63 91.00 605.51 72.33
  Q 605.97 71.95 606.45 72.31
  L 787.94 210.21
  A 2.00 1.98 16.3 0 1 788.71 211.60
  L 793.91 264.25
  A 0.28 0.27 -76.2 0 1 793.49 264.51
  Z"
/>
<path fill="#3dad4a" d="
  M 1024.00 95.69
  L 1024.00 115.60
  L 858.70 115.61
  A 0.80 0.79 -84.1 0 1 857.93 114.65
  Q 858.27 113.05 857.71 112.17
  Q 855.59 108.87 854.85 112.98
  Q 854.67 113.99 854.48 115.00
  Q 854.37 115.61 853.75 115.61
  L 807.95 115.61
  A 1.11 1.10 -18.1 0 1 807.06 115.16
  L 793.33 96.17
  A 0.32 0.31 72.2 0 1 793.58 95.67
  L 1024.00 95.69
  Z"
/>
<path fill="#1c82bd" d="
  M 772.68 267.61
  A 0.27 0.26 -86.0 0 0 772.34 267.91
  Q 773.24 273.49 774.84 278.36
  Q 775.31 279.77 774.03 279.01
  L 524.40 131.06
  A 0.29 0.29 0.0 0 1 524.39 130.56
  Q 539.89 120.81 555.06 110.32
  Q 555.62 109.94 556.18 110.31
  L 793.43 266.64
  Q 793.94 266.98 794.07 267.57
  Q 794.78 270.86 794.87 273.83
  Q 795.01 278.27 795.98 282.78
  A 1.80 1.57 -55.1 0 1 796.02 283.15
  Q 795.99 284.66 795.07 284.51
  Q 794.55 284.42 794.14 284.08
  Q 784.77 276.28 775.65 269.14
  Q 774.31 268.09 772.68 267.61
  Z"
/>
<path fill="#ee5259" d="
  M 856.31 241.32
  A 0.92 0.92 0.0 0 0 855.33 241.85
  L 820.72 319.01
  Q 818.80 323.29 819.64 318.68
  L 856.05 117.76
  Q 856.33 116.18 856.62 117.76
  L 893.37 320.50
  Q 893.52 321.34 892.88 320.79
  Q 892.59 320.54 892.43 320.20
  Q 874.40 279.72 857.52 242.23
  Q 857.17 241.46 856.31 241.32
  Z"
/>
<path fill="#3d431a" d="
  M 827.36 143.95
  Q 827.88 143.92 827.57 143.50
  L 809.28 118.24
  A 0.28 0.28 0.0 0 1 809.51 117.79
  L 853.18 117.76
  Q 853.84 117.76 853.70 118.41
  L 846.72 149.49
  A 0.98 0.98 0.0 0 1 845.76 150.26
  L 809.42 150.26
  A 1.46 1.45 67.6 0 1 808.38 149.82
  L 801.26 142.47
  Q 800.64 141.82 801.54 141.78
  C 806.33 141.57 810.97 142.78 815.53 142.94
  C 819.57 143.09 823.30 144.18 827.36 143.95
  Z"
/>
<path fill="#3d431a" d="
  M 1024.00 117.77
  L 1024.00 150.27
  L 866.93 150.27
  A 0.91 0.91 0.0 0 1 866.04 149.56
  Q 863.04 136.64 859.78 121.86
  Q 859.47 120.42 858.90 119.16
  A 0.99 0.99 0.0 0 1 859.80 117.76
  L 1024.00 117.77
  Z"
/>
<path fill="#3dad4a" d="
  M 845.95 152.82
  L 841.68 172.02
  A 0.35 0.35 0.0 0 1 841.34 172.29
  L 829.92 172.28
  A 0.35 0.35 0.0 0 1 829.67 172.17
  L 811.42 153.01
  A 0.35 0.35 0.0 0 1 811.68 152.42
  L 845.60 152.39
  A 0.35 0.35 0.0 0 1 845.95 152.82
  Z"
/>
<path fill="#3dad4a" d="
  M 1024.00 152.38
  L 1024.00 172.29
  L 871.62 172.30
  A 0.70 0.68 83.7 0 1 870.95 171.75
  L 866.72 152.81
  Q 866.63 152.38 867.07 152.38
  L 1024.00 152.38
  Z"
/>
<path fill="#d9df20" d="
  M 840.61 184.92
  Q 842.08 178.43 843.42 172.22
  A 0.46 0.46 0.0 0 1 844.17 171.96
  Q 844.38 172.13 844.33 172.40
  Q 836.66 214.67 828.60 259.35
  Q 828.07 262.24 826.12 260.04
  C 824.97 258.75 824.55 256.34 824.95 254.55
  Q 832.84 219.28 840.61 184.92
  Z"
/>
<path fill="#db75ac" d="
  M 870.73 179.16
  Q 879.67 220.02 887.62 254.54
  Q 888.13 256.72 887.16 258.74
  Q 886.64 259.86 885.75 260.62
  Q 884.65 261.58 884.39 260.14
  Q 876.39 216.08 868.46 172.40
  Q 868.43 172.18 868.64 172.13
  L 868.65 172.12
  Q 868.86 172.07 868.93 172.28
  Q 869.87 175.25 870.73 179.16
  Z"
/>
<path fill="#3d431a" d="
  M 1024.00 174.56
  L 1024.00 209.48
  L 924.58 209.46
  Q 923.82 209.46 923.96 208.71
  Q 924.01 208.45 923.90 208.19
  Q 923.56 207.34 923.10 208.13
  Q 922.32 209.45 920.81 209.45
  Q 900.29 209.49 879.79 209.48
  A 0.45 0.45 0.0 0 1 879.35 209.13
  L 871.73 175.23
  A 0.57 0.57 0.0 0 1 872.28 174.53
  L 1024.00 174.56
  Z"
/>
<path fill="#3d431a" d="
  M 833.03 174.67
  L 840.59 174.61
  A 0.34 0.34 0.0 0 1 840.93 175.03
  L 839.47 181.76
  A 0.34 0.34 0.0 0 1 838.89 181.91
  L 832.79 175.24
  A 0.34 0.34 0.0 0 1 833.03 174.67
  Z"
/>
<path fill="#3dad4a" d="
  M 906.81 230.74
  Q 906.08 231.80 904.79 231.79
  L 887.90 231.77
  A 4.31 4.30 83.6 0 1 883.70 228.41
  L 880.05 212.30
  Q 879.94 211.82 880.44 211.82
  L 919.16 211.81
  Q 919.83 211.81 919.45 212.35
  L 906.81 230.74
  Z"
/>
<path fill="#3dad4a" d="
  M 1024.00 211.85
  L 1024.00 231.80
  L 922.51 231.79
  Q 921.95 231.79 922.01 231.24
  L 923.91 212.44
  Q 923.97 211.82 924.59 211.82
  L 1024.00 211.85
  Z"
/>
<path fill="#ee5259" d="
  M 826.40 240.07
  L 823.39 253.50
  A 0.92 0.92 0.0 0 1 821.73 253.82
  Q 809.12 235.53 796.78 217.46
  Q 796.29 216.75 797.12 217.00
  Q 797.37 217.08 797.70 217.52
  Q 797.95 217.85 798.28 218.10
  Q 811.77 228.31 826.08 239.18
  A 0.87 0.86 -64.8 0 1 826.40 240.07
  Z"
/>
<path fill="#d9df20" d="
  M 919.00 218.00
  C 910.01 242.37 901.33 266.87 892.23 291.19
  Q 890.72 295.22 889.89 291.00
  Q 887.77 280.23 885.85 268.46
  C 885.46 266.07 885.87 264.32 887.33 262.19
  Q 902.95 239.55 918.24 217.22
  A 0.44 0.44 0.0 0 1 919.02 217.34
  Q 919.12 217.68 919.00 218.00
  Z"
/>
<path fill="#d9df20" d="
  M 820.81 292.16
  C 811.81 267.81 802.77 242.97 794.00 218.75
  Q 793.74 218.02 793.74 217.93
  Q 793.79 216.33 794.69 217.65
  Q 810.48 240.64 825.78 262.83
  C 826.81 264.33 827.28 266.36 826.96 268.13
  Q 824.84 280.22 822.57 292.39
  Q 822.43 293.11 821.73 292.96
  A 1.28 1.27 -3.8 0 1 820.81 292.16
  Z"
/>
<path fill="#f5971c" d="
  M 799.38 238.66
  Q 809.54 266.82 820.02 295.27
  C 820.83 297.48 821.19 299.13 820.77 301.60
  Q 819.76 307.52 818.59 313.37
  Q 818.21 315.29 818.00 317.17
  C 817.80 318.96 817.16 320.42 817.02 322.23
  Q 816.85 324.50 816.00 326.64
  A 1.35 1.35 0.0 0 1 813.82 327.12
  Q 808.62 322.20 803.38 317.12
  C 799.73 313.57 800.29 306.14 799.54 301.51
  C 799.01 298.25 799.19 294.94 798.58 291.63
  C 797.90 287.96 798.14 284.33 797.48 280.60
  C 796.99 277.88 797.13 275.13 796.74 272.42
  Q 796.11 268.03 795.63 262.79
  Q 793.65 241.29 791.39 219.42
  Q 791.09 216.55 792.13 219.24
  Q 795.83 228.80 799.38 238.66
  Z"
/>
<path fill="#f5971c" d="
  M 893.08 294.00
  C 902.42 268.67 911.17 243.74 920.53 219.09
  Q 921.53 216.47 921.25 219.26
  Q 916.94 263.44 912.50 307.50
  C 912.13 311.10 911.75 314.70 909.10 317.34
  Q 904.00 322.44 898.69 327.12
  A 1.41 1.41 0.0 0 1 896.37 326.31
  Q 894.61 316.49 892.55 305.57
  C 891.74 301.30 891.51 298.27 893.08 294.00
  Z"
/>
<path fill="#3d431a" d="
  M 904.17 234.53
  L 898.09 243.39
  A 0.34 0.34 0.0 0 1 897.56 243.43
  L 889.14 234.55
  A 0.34 0.34 0.0 0 1 889.38 233.97
  L 903.89 234.00
  A 0.34 0.34 0.0 0 1 904.17 234.53
  Z"
/>
<path fill="#3d431a" d="
  M 1024.00 233.98
  L 1024.00 277.51
  L 968.07 277.49
  A 0.78 0.77 84.6 0 1 967.31 276.86
  L 965.08 265.08
  A 0.80 0.79 62.9 0 0 963.75 264.65
  L 951.03 276.79
  A 2.62 2.59 23.1 0 1 949.24 277.50
  L 938.76 277.51
  Q 938.20 277.51 938.36 276.97
  Q 939.65 272.52 940.07 269.27
  Q 940.45 266.41 938.19 268.20
  L 928.86 275.57
  Q 928.41 275.92 928.02 275.51
  L 919.34 266.25
  A 2.46 2.44 -63.9 0 1 918.69 264.33
  L 921.64 235.21
  Q 921.77 233.99 922.99 233.99
  L 1024.00 233.98
  Z"
/>
<path fill="#d9df20" d="
  M 889.62 254.62
  L 885.07 234.71
  A 0.31 0.31 0.0 0 1 885.60 234.43
  L 896.28 245.69
  A 0.31 0.31 0.0 0 1 896.31 246.08
  L 890.17 254.73
  A 0.31 0.31 0.0 0 1 889.62 254.62
  Z"
/>
<path fill="#a9d7b8" d="
  M 858.43 249.03
  L 895.20 331.02
  A 0.32 0.32 0.0 0 1 895.22 331.21
  L 889.59 359.61
  A 0.32 0.32 0.0 0 1 889.01 359.73
  L 857.88 314.04
  A 0.32 0.32 0.0 0 1 857.82 313.86
  L 857.82 249.17
  A 0.32 0.32 0.0 0 1 858.43 249.03
  Z"
/>
<path fill="#54b5e4" d="
  M 853.72 250.20
  Q 855.00 247.34 855.00 250.48
  L 855.00 312.36
  A 4.35 4.32 -28.0 0 1 854.24 314.81
  L 823.91 359.39
  A 0.38 0.37 39.5 0 1 823.34 359.44
  Q 823.04 359.14 822.96 358.72
  Q 820.34 345.84 818.00 333.89
  C 817.68 332.27 817.76 330.42 818.43 328.91
  Q 836.30 289.03 853.72 250.20
  Z"
/>
<path fill="#d9df20" d="
  M 925.84 277.96
  Q 922.32 281.10 918.63 283.99
  Q 918.05 284.44 917.33 284.40
  Q 916.72 284.37 916.78 283.77
  L 918.21 269.47
  Q 918.27 268.83 918.72 269.29
  L 926.55 277.22
  Q 926.81 277.48 926.49 277.65
  Q 926.34 277.72 926.19 277.77
  Q 925.99 277.83 925.84 277.96
  Z"
/>
<path fill="#ee5259" d="
  M 742.78 330.46
  C 741.09 327.26 738.44 323.93 739.12 320.31
  Q 743.93 294.95 748.34 271.13
  A 0.76 0.76 0.0 0 1 749.08 270.50
  Q 749.51 270.49 749.63 270.90
  Q 749.72 271.23 749.86 271.54
  Q 753.35 279.35 755.77 286.75
  Q 756.28 288.34 755.86 289.95
  L 745.02 331.47
  A 0.77 0.77 0.0 0 1 743.72 331.81
  Q 743.22 331.29 742.78 330.46
  Z"
/>
<path fill="#ee5259" d="
  M 957.36 285.14
  C 959.02 280.57 960.94 275.81 962.93 271.20
  Q 963.14 270.71 963.66 270.54
  A 0.45 0.45 0.0 0 1 964.24 270.89
  Q 968.82 295.44 973.50 320.32
  C 974.19 324.01 971.27 327.84 969.49 330.98
  Q 969.05 331.75 968.79 331.88
  Q 967.85 332.36 967.59 331.34
  Q 962.50 311.59 956.98 290.68
  Q 956.29 288.07 957.36 285.14
  Z"
/>
<path fill="#f5971c" d="
  M 757.44 284.93
  C 755.75 280.83 753.69 276.16 752.23 271.92
  Q 751.52 269.86 753.09 271.37
  Q 784.33 301.42 813.73 329.69
  Q 815.43 331.32 815.92 333.68
  Q 819.61 351.49 823.36 371.24
  Q 823.78 373.49 821.50 373.47
  L 817.91 373.46
  Q 815.57 373.45 815.13 371.15
  L 806.96 328.56
  A 4.29 4.23 14.6 0 0 805.48 326.08
  Q 783.08 307.57 760.56 288.94
  Q 758.34 287.10 757.44 284.93
  Z"
/>
<path fill="#d9df20" d="
  M 960.19 273.34
  Q 957.57 279.73 954.85 286.28
  Q 954.44 287.25 952.28 289.04
  Q 928.55 308.66 906.83 326.59
  Q 906.10 327.19 905.92 328.15
  Q 901.34 351.84 897.69 371.26
  A 2.75 2.75 0.0 0 1 895.00 373.50
  L 891.03 373.50
  Q 888.68 373.50 889.14 371.19
  Q 894.55 343.63 896.65 333.47
  Q 897.10 331.27 898.81 329.63
  Q 930.17 299.42 959.37 271.36
  Q 961.39 269.42 960.67 272.13
  Q 960.65 272.21 960.19 273.34
  Z"
/>
<path fill="#3e9946" d="
  M 797.29 306.98
  L 778.56 275.68
  Q 776.59 272.38 779.59 274.78
  Q 786.95 280.65 794.83 287.26
  C 797.30 289.33 796.99 295.17 797.18 297.90
  C 797.40 300.88 798.23 303.83 798.02 306.81
  Q 797.93 308.05 797.29 306.98
  Z"
/>
<path fill="#3e9946" d="
  M 934.72 274.51
  C 928.53 285.32 921.84 296.05 915.41 307.05
  Q 915.26 307.31 915.00 307.47
  Q 914.39 307.87 914.46 307.14
  Q 915.29 298.65 916.13 290.65
  Q 916.36 288.46 918.27 286.87
  Q 925.58 280.76 932.90 274.86
  Q 933.53 274.35 934.28 274.02
  Q 935.24 273.60 934.72 274.51
  Z"
/>
<path fill="#54b5e4" d="
  M 777.05 278.94
  C 776.83 278.05 776.47 277.37 776.17 276.52
  Q 776.13 276.41 776.14 276.29
  Q 776.18 276.01 776.35 276.02
  Q 776.50 276.03 776.58 276.15
  Q 786.40 292.58 795.88 308.56
  Q 796.11 308.95 795.95 309.38
  A 0.19 0.19 0.0 0 1 795.64 309.46
  Q 789.53 303.81 783.28 297.72
  C 782.39 296.86 781.54 295.05 781.11 293.65
  Q 778.86 286.28 777.05 278.94
  Z"
/>
<path fill="#a9d7b8" d="
  M 921.56 300.38
  Q 929.53 287.26 935.72 276.84
  Q 936.80 275.01 936.23 277.05
  Q 933.93 285.25 931.63 293.45
  Q 930.82 296.34 928.85 298.21
  Q 923.42 303.36 917.25 309.48
  A 0.35 0.34 -34.3 0 1 916.69 309.38
  Q 916.51 308.98 916.78 308.51
  Q 919.13 304.37 921.56 300.38
  Z"
/>
<path fill="#3dad4a" d="
  M 947.64 280.05
  L 940.04 287.50
  A 0.33 0.33 0.0 0 1 939.57 287.49
  L 936.45 284.21
  A 0.33 0.33 0.0 0 1 936.37 283.90
  L 937.43 279.80
  A 0.33 0.33 0.0 0 1 937.74 279.55
  L 947.40 279.49
  A 0.33 0.33 0.0 0 1 947.64 280.05
  Z"
/>
<path fill="#3dad4a" d="
  M 1024.00 279.57
  L 1024.00 298.98
  L 972.12 298.97
  Q 971.51 298.97 971.39 298.37
  L 967.94 280.29
  Q 967.80 279.54 968.56 279.54
  L 1024.00 279.57
  Z"
/>
<path fill="#d9df20" d="
  M 937.63 289.76
  L 934.81 292.52
  A 0.45 0.45 0.0 0 1 934.06 292.08
  L 935.29 287.47
  A 0.45 0.45 0.0 0 1 936.07 287.30
  L 937.65 289.14
  A 0.45 0.45 0.0 0 1 937.63 289.76
  Z"
/>
<path fill="#54b5e4" d="
  M 760.94 389.21
  C 758.89 387.62 756.72 386.15 755.03 384.16
  C 745.40 372.87 745.12 356.29 748.84 342.69
  Q 749.16 341.50 748.47 340.50
  Q 745.71 336.53 746.86 332.15
  Q 751.56 314.11 756.64 294.78
  Q 756.91 293.75 757.53 292.87
  A 0.58 0.57 -38.4 0 1 758.53 292.98
  L 790.09 371.68
  A 5.42 5.39 -37.1 0 1 789.33 377.02
  L 760.74 413.55
  A 1.63 1.62 41.8 0 1 758.30 413.68
  C 756.65 411.98 753.17 409.31 754.32 406.67
  Q 757.86 398.48 761.24 390.36
  Q 761.53 389.67 760.94 389.21
  Z"
/>
<path fill="#db75ac" d="
  M 792.09 371.48
  L 760.83 293.42
  A 0.52 0.52 0.0 0 1 761.15 292.73
  C 761.54 292.60 761.98 292.69 762.29 292.95
  Q 782.34 309.49 802.40 326.03
  C 803.95 327.30 805.03 328.56 805.41 330.58
  Q 809.00 349.75 812.58 368.04
  Q 812.97 370.03 813.10 372.00
  Q 813.20 373.45 811.75 373.45
  L 795.00 373.45
  Q 792.88 373.45 792.09 371.48
  Z"
/>
<path fill="#db75ac" d="
  M 951.32 294.78
  L 920.55 371.54
  Q 919.78 373.46 917.71 373.46
  L 900.75 373.47
  A 1.19 1.18 89.8 0 1 899.57 372.29
  Q 899.56 370.88 899.83 369.49
  Q 903.64 349.60 907.27 330.62
  Q 907.74 328.17 909.65 326.59
  Q 930.60 309.23 949.64 293.55
  Q 952.89 290.87 951.32 294.78
  Z"
/>
<path fill="#a9d7b8" d="
  M 951.35 390.18
  Q 954.76 398.27 958.17 406.27
  C 958.79 407.70 958.71 409.14 957.55 410.31
  Q 955.66 412.20 954.01 413.89
  A 1.20 1.19 -45.2 0 1 952.31 413.90
  Q 951.44 413.03 950.67 412.03
  Q 937.93 395.51 923.58 377.39
  C 922.34 375.81 921.78 373.64 922.56 371.72
  Q 938.82 331.21 953.79 293.82
  Q 953.99 293.30 954.41 292.93
  A 0.79 0.79 0.0 0 1 955.69 293.33
  Q 960.90 313.10 965.84 332.34
  Q 966.91 336.51 964.01 340.63
  A 1.44 1.42 58.6 0 0 963.77 341.65
  Q 963.99 343.23 964.41 345.06
  Q 966.47 353.89 965.85 363.96
  C 965.73 365.99 965.19 368.04 964.74 370.04
  C 962.85 378.52 958.45 384.36 951.60 389.28
  Q 951.11 389.63 951.35 390.18
  Z"
/>
<path fill="#3d431a" d="
  M 1024.00 301.11
  L 1024.00 333.59
  L 984.42 333.63
  Q 983.62 333.63 983.03 333.08
  C 980.75 330.98 976.75 327.50 976.17 324.17
  Q 974.06 312.03 972.02 301.96
  A 0.74 0.74 0.0 0 1 972.74 301.07
  L 1024.00 301.11
  Z"
/>
<path fill="#d9df20" d="
  M 825.61 360.03
  L 853.74 318.75
  Q 855.07 316.81 855.07 319.16
  Q 855.08 322.88 855.21 327.37
  Q 855.29 329.99 854.04 331.76
  Q 840.87 350.51 827.56 369.52
  Q 825.58 372.35 824.90 368.97
  Q 824.74 368.22 824.35 366.28
  A 8.20 8.19 -33.6 0 1 825.61 360.03
  Z"
/>
<path fill="#f5971c" d="
  M 888.32 365.94
  Q 888.13 367.45 887.77 368.93
  Q 887.02 372.00 885.22 369.41
  Q 872.61 351.32 858.78 331.68
  Q 857.80 330.28 857.78 328.67
  Q 857.70 323.41 857.85 318.66
  Q 857.89 317.48 858.55 318.45
  L 886.92 360.14
  Q 888.71 362.77 888.32 365.94
  Z"
/>
<path fill="#d9df20" d="
  M 966.55 339.88
  C 968.76 335.73 971.24 331.57 973.50 327.48
  Q 974.65 325.42 975.09 327.74
  L 984.73 378.96
  A 4.19 4.18 -28.8 0 1 983.67 382.59
  L 961.92 405.67
  A 1.37 1.37 0.0 0 1 959.66 405.26
  Q 957.07 399.15 954.62 393.39
  C 954.15 392.29 954.19 391.18 954.23 390.01
  A 1.12 1.11 -17.5 0 1 954.68 389.16
  Q 964.13 382.10 966.76 369.15
  C 968.68 359.71 967.75 352.14 965.84 342.89
  Q 965.59 341.68 966.55 339.88
  Z"
/>
<path fill="#f5971c" d="
  M 752.97 405.09
  Q 752.31 406.69 751.00 405.55
  Q 749.81 404.52 748.70 403.32
  Q 739.16 393.00 729.23 382.57
  C 727.49 380.75 728.20 378.01 728.61 375.84
  Q 733.31 351.23 737.77 327.43
  A 0.54 0.53 -73.8 0 1 738.49 327.03
  Q 738.80 327.15 738.97 327.45
  Q 742.54 333.77 745.95 339.94
  C 746.64 341.19 746.84 342.40 746.52 343.81
  C 742.83 359.82 743.93 378.03 757.40 388.87
  C 758.67 389.89 758.52 391.80 757.95 393.15
  Q 755.37 399.24 752.97 405.09
  Z"
/>
<path fill="#d9df20" d="
  M 978.14 331.56
  L 1021.20 376.81
  A 0.30 0.30 0.0 0 1 1021.28 377.02
  L 1021.30 382.06
  A 0.30 0.30 0.0 0 1 1020.80 382.28
  L 980.36 345.70
  A 0.30 0.30 0.0 0 1 980.27 345.53
  L 977.62 331.83
  A 0.30 0.30 0.0 0 1 978.14 331.56
  Z"
/>
<path fill="#a9d7b8" d="
  M 857.83 464.93
  L 857.82 335.00
  Q 857.82 333.66 858.59 334.76
  Q 864.79 343.64 870.78 352.14
  Q 872.91 355.17 872.34 359.49
  Q 866.50 403.88 860.24 450.83
  Q 860.01 452.50 859.88 454.17
  C 859.69 456.44 858.92 458.45 858.96 460.79
  Q 859.01 463.06 858.27 465.01
  Q 857.83 466.16 857.83 464.93
  Z"
/>
<path fill="#54b5e4" d="
  M 840.22 359.00
  C 839.84 356.72 840.74 353.94 842.05 352.02
  Q 847.65 343.88 853.86 335.15
  Q 855.01 333.54 855.01 335.52
  L 855.00 465.64
  Q 855.00 465.78 854.86 465.79
  L 854.61 465.80
  Q 854.41 465.82 854.38 465.62
  Q 847.59 415.09 841.58 368.31
  Q 840.96 363.50 840.22 359.00
  Z"
/>
<path fill="#3dad4a" d="
  M 1024.00 335.66
  L 1024.00 355.28
  L 1007.07 355.25
  A 1.30 1.25 65.5 0 1 1006.21 354.91
  L 986.13 336.39
  Q 985.32 335.65 986.42 335.65
  L 1024.00 335.66
  Z"
/>
<path fill="#3dad4a" d="
  M 1019.12 383.51
  Q 1000.44 369.42 982.71 355.94
  A 1.95 1.92 -76.6 0 1 981.97 354.72
  L 981.00 349.23
  Q 980.86 348.44 981.45 348.98
  Q 1000.40 366.18 1019.37 383.32
  Q 1019.45 383.39 1019.38 383.48
  L 1019.37 383.48
  Q 1019.26 383.62 1019.12 383.51
  Z"
/>
<path fill="#3dad4a" d="
  M 1000.34 352.06
  C 1006.79 357.92 1013.33 364.20 1020.02 370.04
  C 1021.15 371.02 1021.04 371.77 1020.97 373.10
  Q 1020.92 374.15 1020.22 373.37
  Q 1010.44 362.57 1000.13 352.32
  Q 1000.01 352.20 1000.13 352.07
  L 1000.13 352.06
  Q 1000.23 351.96 1000.34 352.06
  Z"
/>
<path fill="#3d431a" d="
  M 1024.00 357.30
  L 1024.00 392.02
  Q 1022.41 389.63 1022.73 387.51
  Q 1023.72 380.82 1022.90 375.68
  C 1022.65 374.11 1022.77 372.52 1022.74 370.95
  A 2.03 1.99 -69.3 0 0 1022.12 369.54
  Q 1017.00 364.66 1010.01 358.65
  Q 1008.55 357.40 1010.47 357.38
  L 1024.00 357.30
  Z"
/>
<path fill="#ee5259" d="
  M 983.20 358.58
  L 1020.87 387.23
  A 0.30 0.30 0.0 0 1 1020.99 387.47
  L 1021.01 413.86
  A 0.30 0.30 0.0 0 1 1020.54 414.11
  L 981.30 388.27
  A 0.30 0.30 0.0 0 1 981.25 387.81
  L 986.96 381.75
  A 0.30 0.30 0.0 0 0 987.04 381.49
  L 982.73 358.88
  A 0.30 0.30 0.0 0 1 983.20 358.58
  Z"
/>
<path fill="#ee5259" d="
  M 851.95 520.67
  C 832.87 473.06 813.83 425.94 794.92 378.52
  Q 794.44 377.31 794.26 376.34
  A 0.75 0.75 0.0 0 1 795.00 375.46
  L 821.79 375.45
  A 2.99 2.99 0.0 0 1 824.72 377.85
  Q 838.91 449.18 852.97 520.21
  Q 853.03 520.53 852.83 520.79
  A 0.52 0.51 -37.0 0 1 851.95 520.67
  Z"
/>
<path fill="#ee5259" d="
  M 918.22 377.34
  L 860.90 520.39
  Q 860.20 522.14 859.92 520.28
  Q 859.82 519.56 859.96 518.83
  Q 874.18 447.05 887.95 377.75
  A 2.86 2.85 -84.3 0 1 890.75 375.45
  L 916.95 375.45
  Q 918.98 375.45 918.22 377.34
  Z"
/>
<path fill="#3e9946" d="
  M 794.08 381.60
  Q 799.30 394.71 804.96 408.67
  C 805.94 411.09 806.90 413.30 804.27 415.15
  Q 790.89 424.54 777.71 433.82
  A 0.88 0.88 0.0 0 1 776.56 433.69
  L 762.27 417.99
  Q 760.92 416.51 762.15 414.94
  L 791.22 377.76
  A 0.77 0.76 -38.3 0 1 792.52 377.91
  Q 793.36 379.79 794.08 381.60
  Z"
/>
<path fill="#3e9946" d="
  M 907.11 410.31
  L 920.15 377.78
  A 0.70 0.70 0.0 0 1 921.35 377.61
  L 950.71 415.17
  A 2.02 2.02 0.0 0 1 950.62 417.77
  L 936.14 433.67
  A 0.91 0.90 38.7 0 1 934.94 433.80
  L 908.58 415.27
  A 4.17 4.16 28.5 0 1 907.11 410.31
  Z"
/>
<path fill="#1c82bd" d="
  M 1020.43 425.03
  L 973.16 397.03
  A 0.37 0.37 0.0 0 1 973.07 396.46
  L 979.48 389.62
  A 0.37 0.37 0.0 0 1 979.95 389.56
  L 1020.82 416.51
  A 0.37 0.37 0.0 0 1 1020.99 416.82
  L 1020.99 424.71
  A 0.37 0.37 0.0 0 1 1020.43 425.03
  Z"
/>
<path fill="#d9df20" d="
  M 799.98 433.17
  A 1.15 1.14 -40.7 0 0 798.76 433.08
  L 784.88 440.54
  Q 783.03 441.53 781.72 439.90
  L 779.71 437.40
  Q 778.26 435.59 780.16 434.26
  L 805.03 416.76
  A 2.49 2.49 0.0 0 1 808.77 417.87
  Q 829.73 470.12 850.31 521.45
  Q 850.55 522.06 849.96 522.35
  A 0.64 0.63 59.6 0 1 849.17 522.14
  Q 845.73 517.30 841.97 512.42
  Q 838.63 508.07 835.44 501.83
  Q 818.73 469.05 800.39 433.66
  Q 800.23 433.37 799.98 433.17
  Z"
/>
<path fill="#d9df20" d="
  M 912.44 433.44
  Q 894.64 467.75 876.64 502.87
  Q 873.86 508.30 870.70 512.37
  Q 867.16 516.94 863.88 521.79
  Q 863.54 522.29 862.99 522.27
  Q 862.81 522.26 862.67 522.22
  Q 862.12 522.06 862.34 521.53
  Q 881.87 472.75 903.75 418.25
  Q 904.20 417.11 905.27 416.49
  A 2.00 1.99 47.6 0 1 907.41 416.59
  L 932.24 434.06
  Q 934.28 435.49 932.85 437.54
  Q 931.88 438.92 930.64 440.22
  Q 929.45 441.47 927.94 440.65
  L 913.81 433.02
  A 1.00 1.00 0.0 0 0 912.44 433.44
  Z"
/>
<path fill="#d9df20" d="
  M 994.42 473.12
  Q 995.14 474.12 995.27 475.33
  A 0.54 0.54 0.0 0 1 994.43 475.83
  L 938.88 436.77
  A 2.08 2.08 0.0 0 1 938.53 433.68
  L 952.16 418.65
  A 0.91 0.91 0.0 0 1 953.55 418.70
  Q 974.43 445.33 994.42 473.12
  Z"
/>
<path fill="#f5971c" d="
  M 717.63 474.44
  C 730.03 456.51 744.16 438.05 759.28 418.85
  A 0.74 0.73 -46.9 0 1 760.40 418.81
  L 773.75 433.48
  A 2.28 2.28 0.0 0 1 773.38 436.88
  Q 744.95 456.82 718.81 475.23
  Q 718.48 475.46 718.08 475.46
  Q 717.81 475.46 717.65 475.26
  Q 717.34 474.86 717.63 474.44
  Z"
/>
<path fill="#db75ac" d="
  M 786.34 441.78
  C 790.24 439.68 794.27 437.11 798.27 435.50
  Q 799.13 435.15 799.56 435.97
  L 803.44 443.43
  Q 804.77 446.00 802.25 447.41
  L 794.77 451.61
  A 2.06 2.05 52.6 0 1 792.33 451.28
  Q 788.91 447.93 785.73 443.89
  A 1.24 1.24 0.0 0 1 785.56 442.63
  Q 785.80 442.07 786.34 441.78
  Z"
/>
<path fill="#db75ac" d="
  M 926.75 442.01
  A 0.20 0.20 0.0 0 1 926.84 442.10
  Q 927.58 443.21 926.76 444.20
  Q 923.85 447.71 920.30 451.36
  A 1.89 1.87 -53.1 0 1 918.04 451.69
  L 910.13 447.27
  A 2.61 2.61 0.0 0 1 909.08 443.79
  L 913.13 435.90
  Q 913.61 434.96 914.54 435.46
  L 926.75 442.01
  Z"
/>
<path fill="#ee5259" d="
  M 783.17 457.63
  C 762.64 464.07 742.66 470.47 721.48 477.03
  A 0.47 0.47 0.0 0 1 721.18 477.03
  Q 720.20 476.71 721.09 476.08
  Q 747.55 457.33 775.37 437.83
  Q 776.70 436.90 777.79 438.10
  C 780.25 440.79 783.17 443.32 784.08 446.93
  Q 784.96 450.40 785.57 453.62
  Q 786.15 456.69 783.17 457.63
  Z"
/>
<path fill="#f5971c" d="
  M 928.17 448.49
  C 928.88 444.16 931.78 441.17 934.80 438.26
  Q 936.11 436.99 937.63 438.06
  Q 965.55 457.75 991.12 475.62
  Q 991.51 475.89 991.70 476.31
  Q 992.21 477.38 991.08 477.02
  L 929.49 457.64
  A 3.62 3.62 0.0 0 1 927.11 453.14
  Q 927.78 450.93 928.17 448.49
  Z"
/>
<path fill="#54b5e4" d="
  M 806.28 448.97
  L 829.73 494.51
  A 0.39 0.39 0.0 0 1 829.34 495.07
  Q 828.92 495.03 828.65 494.69
  Q 812.39 474.71 798.33 458.41
  Q 796.62 456.43 795.00 454.30
  A 0.46 0.46 0.0 0 1 795.15 453.62
  L 804.44 448.41
  A 1.34 1.34 0.0 0 1 806.28 448.97
  Z"
/>
<path fill="#54b5e4" d="
  M 906.51 448.76
  A 1.10 1.10 0.0 0 1 908.01 448.31
  L 916.60 453.09
  Q 918.05 453.89 916.99 455.16
  L 883.53 495.09
  A 0.29 0.28 -33.8 0 1 883.04 495.00
  Q 882.90 494.56 883.11 494.15
  Q 895.40 470.24 906.51 448.76
  Z"
/>
<path fill="#ee5259" d="
  M 808.67 503.50
  Q 808.16 503.73 808.06 504.25
  Q 806.30 513.64 804.27 524.72
  Q 803.84 527.06 803.32 524.73
  Q 794.20 483.70 786.80 450.14
  Q 786.68 449.62 787.77 449.77
  A 1.08 1.05 72.4 0 1 788.44 450.13
  Q 812.49 477.14 834.64 505.61
  Q 844.05 517.69 852.64 530.31
  C 854.12 532.49 855.03 534.89 855.03 537.58
  Q 854.99 554.00 855.00 570.47
  A 1.16 1.16 0.0 0 1 853.72 571.63
  Q 853.08 571.57 852.73 571.01
  Q 831.32 537.59 809.74 503.82
  A 0.86 0.86 0.0 0 0 808.67 503.50
  Z"
/>
<path fill="#3e9946" d="
  M 903.81 503.47
  A 0.49 0.49 0.0 0 0 903.10 503.59
  Q 881.84 536.80 860.54 570.03
  Q 859.96 570.93 859.91 570.98
  Q 857.82 573.12 857.82 570.09
  Q 857.79 554.31 857.76 537.23
  Q 857.75 533.72 859.55 531.06
  Q 869.69 516.08 880.75 502.08
  Q 901.26 476.12 923.55 450.83
  Q 923.91 450.42 924.34 450.13
  Q 926.16 448.89 925.68 451.04
  L 909.39 524.52
  Q 908.84 527.01 908.38 524.50
  L 904.72 504.57
  Q 904.64 504.13 904.29 503.86
  L 903.81 503.47
  Z"
/>
<path fill="#54b5e4" d="
  M 724.55 478.12
  L 784.31 459.32
  A 2.32 2.31 75.1 0 1 787.26 461.04
  L 789.97 473.55
  Q 790.51 476.06 787.95 476.00
  Q 781.65 475.84 775.87 476.48
  C 769.17 477.21 762.36 476.81 755.78 477.64
  C 750.92 478.26 745.87 477.79 741.25 478.28
  Q 732.17 479.23 724.72 479.20
  Q 721.17 479.18 724.55 478.12
  Z"
/>
<path fill="#a9d7b8" d="
  M 987.51 477.86
  Q 988.27 478.09 988.99 478.45
  Q 990.87 479.37 988.78 479.25
  C 984.41 478.99 980.08 479.18 975.74 478.67
  C 968.77 477.85 961.58 478.25 954.69 477.42
  C 949.44 476.79 944.27 477.29 939.08 476.66
  Q 931.54 475.74 923.88 476.03
  A 0.79 0.79 0.0 0 1 923.10 475.48
  Q 922.54 473.79 922.97 471.97
  Q 924.18 466.79 925.23 461.80
  Q 925.93 458.47 929.18 459.51
  Q 957.89 468.72 987.51 477.86
  Z"
/>
<path fill="#3e9946" d="
  M 806.10 525.56
  L 809.32 508.01
  A 0.36 0.36 0.0 0 1 809.97 507.88
  L 812.98 512.52
  A 0.36 0.36 0.0 0 1 813.04 512.73
  L 812.87 516.66
  A 0.36 0.36 0.0 0 1 812.81 516.84
  L 806.75 525.82
  A 0.36 0.36 0.0 0 1 806.10 525.56
  Z"
/>
<path fill="#db75ac" d="
  M 903.64 509.22
  L 906.41 524.61
  Q 906.86 527.16 905.39 525.03
  Q 903.17 521.81 901.07 518.71
  Q 900.05 517.20 899.74 515.66
  C 899.18 512.81 900.50 511.04 901.99 508.87
  Q 903.24 507.04 903.64 509.22
  Z"
/>
</svg>
